<svg xmlns="http://www.w3.org/2000/svg" viewBox="0 0 820 1470.2" class="travel-map" preserveAspectRatio="xMidYMid meet"><path class="rg rg--pass" d="M536 640.8 533.1 643 528 642.3 525 644.8 527.7 648 521.4 653.8 517.3 649.9 511.8 656.6 508.4 655.1 504.2 656.3 500.8 655.2 497.6 656.8 490.5 653.3 488.9 658.3 484.6 661.6 479.6 668.8 481.4 672.6 479.1 674.6 482.5 685.2 477.7 682.6 473.8 684.1 471.5 689.8 467.7 689.9 462 699.3 463.7 702.4 457.8 708 460.6 716.4 458 718.6 457.3 723.6 452.9 724.1 453 729.7 448.8 733.9 451.5 739.6 443.8 741.8 443.9 748.8 447.4 750 449.5 756.3 449.1 761.3 452.3 767.5 446.6 768.7 446 772.1 437.3 769.3 430.7 771.9 430.4 778.8 422.1 781.2 417.9 778.8 416.2 783.6 409 782.6 408.1 777.5 402.2 777.3 401 782.5 396.8 783.5 394.4 779.4 389.2 776.8 393.6 774.8 390.2 768.6 386.1 768 389.9 762.1 389.3 757.8 382.7 759 378.5 757 377.3 751.7 367.3 741.4 367.6 732 356.8 726.3 353.8 722.1 348.7 721.7 340.9 723.3 338.8 720.2 333.6 720.7 329.6 722.8 322.1 716.2 319.5 712.1 317.8 703.8 300.3 703 298.1 698 290.5 694.4 290.5 692.2 286.5 688.8 286.5 685.2 278.8 683.2 274.5 686.8 268.8 688.5 266.8 687.4 253.1 689.6 252.4 683.9 248.7 681.7 255 677.6 253.5 670.6 248.4 664.8 247 656.1 243 649.6 245.1 645.3 242.8 642.1 244.4 638.5 248.6 636.4 248.8 633.9 252.6 631.5 263.5 630 266.9 626.6 275.7 622.2 280.8 616.5 280.7 612.5 286 610.5 290.2 611.5 291.5 609.5 297.8 607.6 299.9 603.1 305.9 603 305.5 599.4 309.6 601.8 310.3 608.1 315.1 607 318.3 611.2 325.1 614.2 336.6 610.3 343.1 613.3 353.5 614.4 359.8 620.7 364.7 618.5 374.9 622.7 374.5 620 379 620.2 381.9 618.5 385 610.7 381.9 601.9 376.1 594.5 378.6 591.9 385.4 590.3 381.2 584.7 386.1 579.4 392 581.1 394.8 580.1 398.7 582 403.1 587.9 411.2 590.6 416.2 587.3 418.8 588.4 421.1 594.6 428.8 597.6 433.5 594.6 433.6 590.4 440.7 597.2 439.8 601 441.9 604 451.7 605 456.9 600 455.3 595.5 463.2 598 465.5 596.7 475.9 596.5 484.9 594.4 489.9 585.7 495.2 581.2 506.6 577.6 513 574.6 518.1 569 519.3 572.6 524 572.3 529.3 566.5 530.8 563.2 536.5 561.6 539.3 559 539.6 555 546.3 553.7 550.9 556 550.2 560.2 552.1 564.6 550.3 568.2 553 571.9 551.8 575.9 544 581 537.9 581 533.2 588.5 530.1 589.6 528.4 593.3 523.5 595 515.4 602.4 515.6 605 511.4 611.7 511.9 615.1 508.2 616.8 512.3 621.7 516.1 620.9 517.9 627.5 525.7 634 531.2 634.8 536 640.8Z"/><path class="rg" d="M705.2 391.4 703.5 385.1 701.1 366.1 704.6 362.3 706.2 348.3 702.4 344.9 701.5 341.8 693.2 333.1 693.5 326.4 682.3 326.9 673 325.1 669.5 322.2 668.3 318.7 663.1 315 655.4 315.5 646.2 311.7 636.7 314.2 634.2 310.1 632.5 310.9 631.2 307.3 621.4 300.6 619.1 295.4 620.1 291.2 615.1 284.2 613 283.1 610.1 277.3 605.1 276.6 604.6 270.8 595.8 259.4 597.9 257.1 596.4 252.5 601 244.8 597.7 237.9 587.7 230.1 585.6 224.1 588.5 223.1 594 216.2 598.4 215.5 606.5 212 595.5 199.1 590.1 199 584.9 192.8 581.1 192.4 577.5 189 567.9 186.7 555.2 196.6 546.6 198.6 533.2 196.7 527.8 197.6 511.9 197.6 513.4 203.7 517.1 208.2 514.7 211.8 511.8 209.9 511 214.5 506.7 217.5 502.9 218.2 497.2 224.5 491.5 225 488.9 227.1 489.5 230 476.7 230.6 476.4 234.5 473.2 235.6 465.5 231.9 460.9 237.3 456.9 238.6 451.8 233.9 451.6 222.2 447.8 220.6 446.1 215.9 448.5 205.2 447.1 195.7 451.1 189 455.8 168.5 449.8 157.8 452 155.5 445.8 152.6 447 149.3 444.4 146 444.1 139.8 445.8 138.1 451.9 137.6 451.9 132.9 448.4 128.2 449.6 124.5 452.7 123.4 452.4 120.1 472.1 136.5 476.3 136.6 494.1 128 496 124.5 502.7 103.8 503.2 98.8 521.5 91.4 529.7 88.6 545.2 85.7 555.7 82.1 564.9 80.5 570.2 78.1 575.2 83.5 578.4 89.5 580.6 96.8 583.1 100.3 596.7 100.5 609.9 97.8 617.9 96.8 629.2 93.5 633.8 88.1 645.9 77.5 649.7 75.5 653.6 69.7 667.7 63.5 672.9 56.7 673.7 53 680.8 60.4 684.3 66.7 686.6 67.7 691.7 65.3 699.4 58.9 702.6 53.3 706.8 52 714.6 53.5 724.2 50.4 727.6 45.9 727 39.2 721.5 34.4 720.4 31.4 725.8 19 726.2 14.5 724.6 7.8 726.1 4.4 730.1 1.9 738.8 0 743.1 6.3 747.1 16.3 750.3 18.6 753.4 25.1 752 26.3 757.1 31.7 761.3 30.9 765.9 35.6 764.3 44.7 767.9 45 768.5 48.7 763 63.5 764.5 67.3 768.9 70.3 766.7 75.6 771.9 88.4 777.6 88.4 785 92.2 788.8 92.2 796.9 87.7 801.5 93.2 806.8 92.2 812.8 94.3 812 99.4 809 104.4 801.3 112.7 789.3 117.9 781 117 775.8 118.1 767.9 121.7 760.7 120.3 757.9 123.7 757 129.3 746.5 131 739.9 134.3 735.9 134.2 735.8 131.6 730.9 130.5 725.3 133.8 729.3 147.7 731.6 150.7 729.7 158.7 720.7 163.1 716.2 152.2 708.6 149.9 707.5 153.5 708.9 159.2 707.8 164.5 703.9 169.3 697.8 170.3 696.3 175.3 699.6 174.5 705 176.5 716.5 178.7 718 180.2 717.8 186.4 721.4 196.7 725.3 195.3 729.4 198.2 731.9 197.5 745.4 201.2 754.2 197.2 755.5 201.6 751.1 204.1 750.6 207.2 754.3 209.9 758.9 209.7 766.7 207.5 766.3 210.2 787.2 208.4 789.3 216.5 786.3 220 791.2 230.2 790 233.6 789.4 250.6 789.6 259.8 794.1 268.9 802.2 268.9 806.2 270.3 809.9 280.6 817.7 276.7 820 278.4 817.8 284 817.8 288.5 813.9 293 812.6 299.6 807.4 301.6 806.4 310.8 801.5 317.9 801.2 330.7 803.1 331.7 800.7 336.8 795.4 339.2 792.8 347.4 795.2 353.3 791.1 357.5 794.9 360.7 802.2 363.2 800.5 370.5 798.1 369.5 796.3 373.9 791.5 374.5 785.8 373.2 780.6 383.5 782.3 389.8 778.4 397.2 773.1 398.7 769.2 396.6 755.2 399.6 749.7 403.5 746.6 403.8 742.2 400.9 736.4 403.4 733 403 730.7 395.5 724.8 393.2 722 383.1 713.7 386.2 712.5 391.5 709.5 392.7 705.2 391.4Z"/><path class="rg" d="M711.9 724.9 711.1 729.7 708.6 731.9 694.5 724.5 690.4 724.7 681.6 731.8 674.4 732.6 669.4 734.8 666.9 729.9 656.8 729.5 654.7 732.9 650.2 734.8 645.6 734.5 639.4 730.5 634.7 731.5 624.2 731 621.2 726.6 614.3 725.9 607.3 715.5 606.9 710.4 602.2 705 597.8 696.6 593.8 692.9 593.3 686 586.3 680.8 585 677.5 588 663.4 586.8 658.9 580.4 657.4 577.2 647.4 573.5 646.3 571.7 640.4 573.8 637.3 571.4 632.8 566.7 632.4 563.5 634.7 560.8 640.4 554.4 641.2 548.4 634.6 542.3 638.8 541.8 640.9 536 640.8 531.2 634.8 525.7 634 517.9 627.5 516.1 620.9 512.3 621.7 508.2 616.8 511.9 615.1 511.4 611.7 515.6 605 515.4 602.4 523.5 595 528.4 593.3 530.1 589.6 533.2 588.5 537.9 581 544 581 551.8 575.9 553 571.9 550.3 568.2 552.1 564.6 550.2 560.2 550.9 556 561.8 555.1 562.8 553.9 577.2 546.5 579.1 542.6 586.4 538.3 593 535.9 602.2 530.6 605.6 530 610 532.5 615.1 532.9 621.2 530.2 628.4 529.9 629.5 538.3 633.7 543 631.8 547.1 625.1 554.5 622.7 562.9 624.4 567.1 628.8 572.3 626.6 584.3 626.4 589.7 630.4 594.1 631.2 597.6 636.6 600.1 641.8 598.8 646.2 599.4 651.8 605.3 657.9 603.3 658.6 608.1 663 609.1 659.6 612.6 661.6 614.1 666.4 613.3 674 615.4 679.4 613.9 681 619.1 678.9 618.4 676.5 627.4 679.2 628.8 685 635.9 685.2 638.6 689.1 641.2 689.4 646.6 688.3 656.6 693.8 657.9 700.4 672.7 704.7 676.7 707.1 685.7 706.8 694 709.1 699 713.7 698.9 716 703.3 720.7 707.5 720.2 712.4 712.6 717.5 711.9 724.9Z"/><path class="rg rg--travel" d="M634 1173.5 631.3 1173.4 622.9 1167 618.8 1167.6 613.2 1164.9 607.6 1164.2 602.4 1171.6 594.6 1171 592.6 1168.6 591.6 1161.5 587.4 1159 584.2 1159.2 575.7 1164.6 573.2 1163.7 568.7 1157.7 562 1158.5 561.2 1156.3 550 1162.6 546.5 1158.9 535.8 1158 530.9 1152.3 527.1 1150.6 525.4 1147.3 520.9 1149.5 517.2 1148.7 506.5 1150.4 500.8 1149.4 499.5 1137.7 490.2 1135 485 1137.3 474.1 1133.3 469.4 1128.4 464.4 1130.7 458.8 1121.5 453.4 1117.1 435 1122.8 433.1 1124.5 429.5 1124.2 427.1 1115.5 428.5 1112.2 441.1 1104.6 442.2 1100.4 440.4 1093.1 441.6 1086.9 440.4 1078.3 442.9 1069.1 441.3 1066.8 436.6 1070.9 430.2 1070 423.6 1067.3 423.4 1063.4 420.3 1059.1 421.5 1057 418.2 1050.1 409 1049.4 401.4 1050 396.9 1044.7 389.3 1040.5 383 1033.9 374.6 1034.1 372.7 1032.1 368.6 1022.4 364.9 1009.5 359.5 1006.7 354.4 1001.9 350.8 993.4 342.2 988.2 341.7 979.9 338.6 975.6 338 970 333.7 967.8 333.9 957.4 335.8 953.7 331.6 947.9 332.1 938.4 335.8 936.3 339.8 920.1 344.1 921.7 348.8 920.9 350.2 918.4 347.3 915 350.6 907.7 346.2 902.1 346 899 353.4 898.5 365.4 893.4 367.7 890.2 375.2 889 381.4 897 387.1 898.2 396.5 907.4 401.4 903.7 410.9 905.2 414.2 907.9 420.2 906.9 425.5 902.2 430.8 904.8 437 902.6 438.5 899.3 436.2 895 431.4 894.4 429.8 885 426.3 881.3 426.2 870.5 419.8 868.1 418.7 865.2 425.5 864.7 428.5 863.2 432.9 864.4 436.6 871.3 446.6 874.1 450.5 868.5 454.9 867.6 457.5 864.2 463.4 869.2 469.9 870.4 474.2 876.2 474 881.3 477.8 881.3 484.5 891.4 491.8 891.6 495.7 896.2 499 896.8 500.6 900.3 499.2 905.6 501.1 908.3 500.3 918.4 504 923 509.9 923.1 517.3 915.5 525.1 909.7 531 910.8 536.2 910.2 540.4 912.5 544.1 910.5 552.9 911.8 552.5 904.9 556.7 905.1 557.6 909.7 563.3 910.4 564 905.9 566.5 909.6 571.5 905.6 576.4 903.7 579 898.5 582.4 898.7 586 905.6 593.9 915.3 591.6 922.1 594.9 922 598.8 925.8 602.4 926.7 610.7 934.6 617 939.2 619.9 948.1 622.1 951.8 626.2 954.2 624.8 957 617.8 955.1 613.7 958.5 611.4 962.9 613.7 965.4 619.3 963.6 618.3 969.2 613.6 975.5 615.4 980.2 624.6 981.7 626.5 984.6 625.4 990.1 631.1 992 634.6 997.6 633.2 1002.7 630.6 1002 629.2 1005.1 628.2 1013.8 633.4 1016.6 634.4 1021.8 642.4 1023.4 650.1 1030.4 657.3 1030.8 661.3 1040.8 661.2 1050.4 662.6 1054.4 660.1 1059.1 657.4 1060.4 658.8 1069.2 655.8 1071.7 656.5 1075.2 651.4 1078.8 655.4 1080.8 656.7 1084 653.2 1085.2 655.3 1088.5 646.6 1090.8 651.8 1093.7 652.2 1096 657 1096.7 658.3 1100.2 654.4 1102.3 647.3 1102.1 650.8 1105.3 653 1118.6 648.4 1121.7 650.1 1124.9 654.8 1125.5 652.1 1128.4 655 1132 653.2 1135.2 646.1 1133.3 643.8 1137.7 645.9 1139.8 647.1 1151.7 643.9 1163 645.1 1166.6 647.8 1166.8 648.4 1170.8 644.6 1174.3 641.3 1172.2 638 1174 634 1173.5Z"/><path class="rg" d="M634 1173.5 634.2 1178.2 637.8 1179.7 633.7 1181.1 636.7 1185.6 634.3 1193.1 637.2 1202.1 635.5 1205.6 639.6 1207.6 641.5 1215 641.5 1219.8 632.8 1219.5 629.3 1213 627 1213.7 628.6 1222.7 625.9 1228.4 619.2 1235.6 617.6 1243.6 619.2 1247.4 615.2 1246.4 606.4 1249.5 602.2 1247.5 597.5 1249.7 593.5 1256.1 589.2 1258.9 585 1258.7 582.4 1255.8 579.1 1259.2 581.3 1260.7 579.6 1266 580.9 1268.8 573.6 1267 566.9 1262.5 559.3 1263.5 558.4 1273.1 555.4 1272.6 555.6 1278.3 552.6 1279.8 551.5 1286.9 547.3 1291.4 543.7 1289.4 539.3 1289.4 536.1 1286.3 530.6 1284.6 527.2 1285.7 523.3 1284.2 520.6 1290 521.8 1298.5 520.1 1302.1 516.7 1300.7 511.3 1302.8 510.1 1309.4 505.8 1312 498.6 1312.5 489.8 1309.1 485.3 1313.8 479.4 1322 473.4 1320.5 470.5 1321.4 469.1 1326.1 467.3 1322.6 468.1 1318.9 463.4 1314.9 458.2 1312.4 457.5 1308.8 455.2 1311.6 454.7 1307.7 451.2 1310.1 454.8 1316.9 451.4 1318.2 443.1 1317.9 441.7 1320.2 436.5 1317.5 431.4 1318.6 426.9 1315.8 420.9 1316.7 414.5 1313.9 408.2 1313.7 403.8 1318.2 388.9 1318.8 391.9 1310.6 387.8 1313 380.2 1314.7 375.3 1313.4 375.4 1310.3 352.1 1304.1 345.5 1303.9 347.4 1295.4 344.3 1289.2 338.5 1286.2 340.5 1277.6 334.8 1274.7 329.4 1267.7 328.9 1261.6 324.3 1249.8 327.7 1245.3 328.1 1235.4 324.6 1233.1 323.4 1221 326.3 1217.9 327.6 1212 332.3 1210.6 339.5 1203.3 341.3 1198.1 339.1 1191.1 344.5 1186.1 343.5 1182 340.2 1177.1 341.1 1166.3 342.9 1164.4 346.8 1168.8 358.8 1174.9 369.7 1175.6 374.7 1172.5 374 1168.2 369 1162.1 364.5 1163 361.6 1153.3 365.2 1154.1 370.5 1151.7 379.8 1156.5 386.9 1154.9 396.2 1157 400 1155.6 406.5 1156.8 412.2 1154.5 415.4 1150.7 421.9 1146.1 432.1 1140.8 435 1135.5 433.1 1124.5 435 1122.8 453.4 1117.1 458.8 1121.5 464.4 1130.7 469.4 1128.4 474.1 1133.3 485 1137.3 490.2 1135 499.5 1137.7 500.8 1149.4 506.5 1150.4 517.2 1148.7 520.9 1149.5 525.4 1147.3 527.1 1150.6 530.9 1152.3 535.8 1158 546.5 1158.9 550 1162.6 561.2 1156.3 562 1158.5 568.7 1157.7 573.2 1163.7 575.7 1164.6 584.2 1159.2 587.4 1159 591.6 1161.5 592.6 1168.6 594.6 1171 602.4 1171.6 607.6 1164.2 613.2 1164.9 618.8 1167.6 622.9 1167 631.3 1173.4 634 1173.5Z"/><path class="rg" d="M632.5 310.9 629.4 313.6 629.5 319 624.3 323.6 620.8 332.7 609 334.5 608.3 338.7 603.3 336.2 595.4 343.5 591.9 340.5 572.3 340.4 566 344.7 563.5 345 554.5 342.2 548 337.8 549.1 333.4 544 329.1 540.2 329.2 533.7 332 530.2 338.8 517.2 344.5 508.5 346.9 504.2 356.6 501.9 358.4 499.4 364.8 492 366.3 489.3 373.7 487 374.1 482 369.5 476.3 371.7 475.6 377.6 471.6 382.1 464.1 385.3 461.5 383.9 458.2 387.1 457.2 394.1 455 395.2 445.8 394.4 443.5 388.4 439.8 387.1 437.6 382.5 429.9 382 420.8 388.8 417.1 390.6 410.9 388.1 403.4 389.7 397 385.7 393.4 387.9 393.7 391.5 390 391.9 389.1 388.7 391.9 387.1 390.8 384.5 386.2 385.2 384.2 373.6 381.7 371.9 375.7 373.6 375.9 366.9 372.5 365 370.7 360.6 371.1 355.9 368.9 351.8 359.8 348.8 354.8 351 353.4 354.4 350.5 355.1 347.2 348.1 343.5 344.6 346.5 342.7 338.1 330.2 338.7 327.4 335.7 324 336.7 319.3 334.3 316.8 331.9 308.4 328.9 308.9 325.2 305.6 318.3 304.9 314.6 296.7 316.6 291.9 323.7 290 332 289.9 334.8 287.2 329 280.1 323.5 275.7 321.2 269.5 322.6 261.6 320 256.5 326.1 251.3 328.5 245.9 327.6 242.3 328.8 232.6 328.2 228.6 329.8 224.9 335.5 219.5 341 211.5 342.4 203.9 348.9 195.6 352.3 187.3 359.6 176.3 361.3 170.2 368.7 162 369.1 156.5 374 151 376.6 145.9 378.4 136.2 388.3 129.4 391.1 126.1 389.3 123.4 393 115.5 399.7 115.5 413.4 106.2 420.6 105 431.1 112.4 441 115.1 452.4 120.1 452.7 123.4 449.6 124.5 448.4 128.2 451.9 132.9 451.9 137.6 445.8 138.1 444.1 139.8 444.4 146 447 149.3 445.8 152.6 452 155.5 449.8 157.8 455.8 168.5 451.1 189 447.1 195.7 448.5 205.2 446.1 215.9 447.8 220.6 451.6 222.2 451.8 233.9 456.9 238.6 460.9 237.3 465.5 231.9 473.2 235.6 476.4 234.5 476.7 230.6 489.5 230 488.9 227.1 491.5 225 497.2 224.5 502.9 218.2 506.7 217.5 511 214.5 511.8 209.9 514.7 211.8 517.1 208.2 513.4 203.7 511.9 197.6 527.8 197.6 533.2 196.7 546.6 198.6 555.2 196.6 567.9 186.7 577.5 189 581.1 192.4 584.9 192.8 590.1 199 595.5 199.1 606.5 212 598.4 215.5 594 216.2 588.5 223.1 585.6 224.1 587.7 230.1 597.7 237.9 601 244.8 596.4 252.5 597.9 257.1 595.8 259.4 604.6 270.8 605.1 276.6 610.1 277.3 613 283.1 615.1 284.2 620.1 291.2 619.1 295.4 621.4 300.6 631.2 307.3 632.5 310.9Z"/><path class="rg" d="M223.7 939.9 223.6 933 224.8 930.3 231.4 929.3 233.2 925.3 237.5 924.1 240.8 920.2 248 918.8 255.8 912.5 253.1 910.1 247.7 909.4 247.4 904 242.2 899.5 239.6 895.2 245 893.4 247.6 898.5 249.8 897.4 255 901 265.8 906.7 267.7 901.6 273.7 900.2 274 896 284.3 893.7 288.9 889.4 295 887.7 301.5 882.5 305.2 885 311.7 879.5 316.7 869.6 319.9 867.8 321.9 857.6 325.1 850.3 324.2 843.1 326.6 840.1 326.1 835.7 323.4 832.1 329.1 832.5 330.7 828.3 337.1 829 342.9 826.3 343.7 821.8 347.4 817.3 352.3 817.8 353.7 821.8 356.6 822.4 357.4 827.6 360.7 829.5 367.9 819.6 375.4 812.4 383.4 799 384.2 792.5 388.6 788.6 396.2 786.1 396.8 783.5 401 782.5 402.2 777.3 408.1 777.5 409 782.6 416.2 783.6 417.9 778.8 422.1 781.2 430.4 778.8 430.7 771.9 437.3 769.3 446 772.1 446.6 768.7 452.3 767.5 449.1 761.3 449.5 756.3 447.4 750 443.9 748.8 443.8 741.8 451.5 739.6 448.8 733.9 453 729.7 452.9 724.1 457.3 723.6 458 718.6 460.6 716.4 457.8 708 463.7 702.4 462 699.3 467.7 689.9 471.5 689.8 473.8 684.1 477.7 682.6 482.5 685.2 479.1 674.6 481.4 672.6 479.6 668.8 484.6 661.6 488.9 658.3 490.5 653.3 497.6 656.8 500.8 655.2 504.2 656.3 508.4 655.1 511.8 656.6 517.3 649.9 521.4 653.8 527.7 648 525 644.8 528 642.3 533.1 643 536 640.8 541.8 640.9 542.3 638.8 548.4 634.6 554.4 641.2 560.8 640.4 563.5 634.7 566.7 632.4 571.4 632.8 573.8 637.3 571.7 640.4 573.5 646.3 577.2 647.4 580.4 657.4 586.8 658.9 588 663.4 585 677.5 586.3 680.8 593.3 686 593.8 692.9 597.8 696.6 602.2 705 606.9 710.4 607.3 715.5 614.3 725.9 621.2 726.6 624.2 731 634.7 731.5 639.4 730.5 645.6 734.5 650.2 734.8 654.7 732.9 656.8 729.5 666.9 729.9 669.4 734.8 674.4 732.6 681.6 731.8 690.4 724.7 694.5 724.5 708.6 731.9 711.1 729.7 711.9 724.9 721.4 721.1 725.3 720.8 729.1 723.9 736.7 726.4 738.9 731.7 737.2 738.3 734.3 745.1 735.7 749.5 723.7 769.9 719.4 775.1 717.8 779.8 717.2 787.7 715.2 791.7 711.6 792.6 707.5 796.9 704.9 809.8 697.5 814.2 694 819.1 693.4 826.4 691.1 831.1 691 836 684.7 841.8 681.5 847.9 680.7 853.1 669.6 856.9 668.5 858.6 669.6 867.6 666.7 875.1 668.7 878.2 672.4 878.9 672.8 882.9 669.3 889.1 673.7 894.3 670.4 900.6 667.4 903.6 673.3 918.3 672.2 924.2 669.4 923.9 663.7 928.7 661.8 926.8 661.7 922.1 657.7 920 655.2 921.2 651.2 927.6 652.7 935 650.8 939.1 652.1 943.3 647.4 944.3 636.8 952.1 631 950.9 626.2 954.2 622.1 951.8 619.9 948.1 617 939.2 610.7 934.6 602.4 926.7 598.8 925.8 594.9 922 591.6 922.1 593.9 915.3 586 905.6 582.4 898.7 579 898.5 576.4 903.7 571.5 905.6 566.5 909.6 564 905.9 563.3 910.4 557.6 909.7 556.7 905.1 552.5 904.9 552.9 911.8 544.1 910.5 540.4 912.5 536.2 910.2 531 910.8 525.1 909.7 517.3 915.5 509.9 923.1 504 923 500.3 918.4 501.1 908.3 499.2 905.6 500.6 900.3 499 896.8 495.7 896.2 491.8 891.6 484.5 891.4 477.8 881.3 474 881.3 474.2 876.2 469.9 870.4 463.4 869.2 457.5 864.2 454.9 867.6 450.5 868.5 446.6 874.1 436.6 871.3 432.9 864.4 428.5 863.2 425.5 864.7 418.7 865.2 419.8 868.1 426.2 870.5 426.3 881.3 429.8 885 431.4 894.4 436.2 895 438.5 899.3 437 902.6 430.8 904.8 425.5 902.2 420.2 906.9 414.2 907.9 410.9 905.2 401.4 903.7 396.5 907.4 387.1 898.2 381.4 897 375.2 889 367.7 890.2 365.4 893.4 353.4 898.5 346 899 346.2 902.1 350.6 907.7 347.3 915 350.2 918.4 348.8 920.9 344.1 921.7 339.8 920.1 335.8 936.3 332.1 938.4 331.6 947.9 335.8 953.7 333.9 957.4 333.7 967.8 330.9 970.3 322.3 963.6 310.6 963.4 303.6 965.6 304.6 962 300 961.7 294 964 288.9 960.6 281.1 962.1 272.4 965.9 274.9 973.9 273.3 976.4 269.8 975.1 263.1 967.7 253.5 960.8 248.6 953.9 247 948.5 249.6 946 247.8 943.7 243.4 943.4 242.7 945.9 239.7 939.9 238 945.9 232.6 947.6 227.5 944.3 223.7 939.9Z"/><path class="rg" d="M65.4 1194.8 72.8 1188.7 74.9 1183.4 80.3 1182.5 84 1187.2 88 1188 84.8 1193.4 85.7 1196.6 97.4 1193 99.8 1195.8 107.8 1198 116.1 1199 121.5 1201.3 126.1 1205.8 128.8 1205.9 136.6 1199 135.7 1191.7 136.2 1183 140.8 1177.8 145.8 1195.4 156.1 1193.8 157 1190.3 164.4 1176.7 169.3 1175 172.7 1177 176.8 1185.4 180.1 1188.1 180.9 1196.3 182.4 1199 189.9 1202.7 193.1 1208.3 195.4 1208.4 200.4 1202.5 206.2 1200.5 209 1201.3 211 1210.6 204.5 1209 200.5 1210.9 202.4 1215.5 200.2 1220.3 196 1220.3 195.6 1227.9 199 1234.2 196.6 1237.3 201.3 1242.7 213.7 1239.1 222.9 1234.1 225.3 1237.1 236.6 1235.3 241.1 1233.5 250.7 1235.3 253.2 1238.4 255.9 1237.3 256.2 1232 258.7 1228.1 259.5 1219.5 261.1 1215.5 268.8 1217.1 273 1214.1 274.5 1217.9 281.9 1216.8 289.9 1224.7 301 1227.6 308 1227.5 304.1 1231.1 304.8 1238.6 317.1 1241.5 316 1245.8 306.6 1248.6 305.1 1255.6 303 1257.9 303.9 1261.3 299.2 1268 303.8 1266.8 305.7 1269.4 306.2 1275.4 313.9 1278.1 324.8 1276.7 329.2 1270.4 329.4 1267.7 334.8 1274.7 340.5 1277.6 338.5 1286.2 344.3 1289.2 347.4 1295.4 345.5 1303.9 349.4 1312.9 349.2 1318.4 342.3 1322.9 342.2 1325.4 346.3 1332.6 347.1 1338.2 345 1347.2 346.1 1357.4 341.7 1359.9 338.4 1354.5 330.2 1354.7 327.4 1351.8 320.8 1351.2 318.9 1353.7 315.5 1351.7 312.7 1354 309.5 1352.7 300 1354.4 298.5 1355.6 298.3 1362 293 1363.6 290.6 1367.1 286.9 1366.8 285.1 1369.7 279.9 1369.9 275.2 1373.5 271.9 1373.6 274.1 1382.2 267.6 1385.4 262.8 1390.7 262.1 1395.9 257.2 1399 256.7 1403.7 253.2 1408.2 250.1 1406 245.1 1406.5 240.3 1411.4 233.1 1412.1 228.4 1409.4 220.1 1414.9 212.5 1413 209.6 1411 200.9 1416.7 193.6 1413.8 190.6 1420 187.5 1421 184.9 1418.3 178.9 1417.6 175.7 1415 173.4 1416.7 167.6 1428.9 157.9 1430.1 152 1432.6 140.8 1440.8 138.5 1440.9 133.1 1435.1 129.4 1436.8 128.8 1446.1 123.3 1456.1 109.8 1460.4 103.7 1454.7 97.9 1453.8 89.8 1465.3 79.8 1464.4 71.8 1464.5 59.7 1470.2 57 1470.2 48.6 1463.7 33.3 1468.8 22.6 1464.7 12.1 1463.6 7.1 1459.2 1 1449.5 0 1442.1 2.9 1441.2 5.3 1433.3 3.7 1424 0.3 1417.8 0.4 1409.6 5.1 1400.4 3.7 1396.4 5.3 1385.9 7.7 1384.4 10.5 1378.6 17.8 1367.2 19.2 1360 25.2 1337.3 28.8 1312.4 31.7 1304.2 41.3 1292.5 46.5 1271.9 54.5 1266.3 58.1 1260 60.2 1250.1 68.5 1229.1 70.4 1227.2 71.4 1219.8 70.5 1213.7 68.2 1212.4 68.2 1207.8 65.4 1203.2 65.4 1194.8Z"/><path class="rg" d="M321.2 269.5 323.5 275.7 329 280.1 334.8 287.2 332 289.9 323.7 290 316.6 291.9 314.6 296.7 318.3 304.9 325.2 305.6 328.9 308.9 331.9 308.4 334.3 316.8 336.7 319.3 335.7 324 338.7 327.4 338.1 330.2 346.5 342.7 343.5 344.6 347.2 348.1 350.5 355.1 353.4 354.4 354.8 351 359.8 348.8 368.9 351.8 371.1 355.9 370.7 360.6 372.5 365 375.9 366.9 375.7 373.6 381.7 371.9 384.2 373.6 386.2 385.2 390.8 384.5 391.9 387.1 389.1 388.7 390 391.9 393.7 391.5 393.4 387.9 397 385.7 403.4 389.7 410.9 388.1 417.1 390.6 420.8 388.8 429.9 382 437.6 382.5 439.8 387.1 443.5 388.4 445.8 394.4 455 395.2 457.2 394.1 458.2 387.1 461.5 383.9 464.1 385.3 471.6 382.1 475.6 377.6 476.3 371.7 482 369.5 487 374.1 489.3 373.7 492 366.3 499.4 364.8 501.9 358.4 504.2 356.6 508.5 346.9 517.2 344.5 530.2 338.8 533.7 332 540.2 329.2 544 329.1 549.1 333.4 548 337.8 554.5 342.2 563.5 345 566 344.7 572.3 340.4 591.9 340.5 595.4 343.5 603.3 336.2 608.3 338.7 609 334.5 620.8 332.7 624.3 323.6 629.5 319 629.4 313.6 632.5 310.9 634.2 310.1 636.7 314.2 646.2 311.7 655.4 315.5 663.1 315 668.3 318.7 669.5 322.2 673 325.1 682.3 326.9 693.5 326.4 693.2 333.1 701.5 341.8 702.4 344.9 706.2 348.3 704.6 362.3 701.1 366.1 703.5 385.1 705.2 391.4 701.6 394.6 699.3 400.4 693.2 399.4 690.6 403.2 680.4 412.7 675.9 418 670.2 418.6 668.5 425.2 669.9 434.8 670.1 442.8 674.9 450.2 681.4 453.1 685.1 456.4 684.8 460.8 681.5 464.2 682.1 473.2 675.2 472 670.9 480.4 670 484.8 664.3 486.8 661.2 484.3 657.6 487.6 658.3 495.8 656.1 498.7 649.5 499.8 643 498.4 639.3 500 637.6 507.2 637.4 514.2 629.7 521 628.4 529.9 621.2 530.2 615.1 532.9 610 532.5 605.6 530 602.2 530.6 593 535.9 586.4 538.3 579.1 542.6 577.2 546.5 562.8 553.9 561.8 555.1 550.9 556 546.3 553.7 539.6 555 539.3 559 536.5 561.6 530.8 563.2 529.3 566.5 524 572.3 519.3 572.6 518.1 569 513 574.6 506.6 577.6 495.2 581.2 489.9 585.7 484.9 594.4 475.9 596.5 465.5 596.7 463.2 598 455.3 595.5 456.9 600 451.7 605 441.9 604 439.8 601 440.7 597.2 433.6 590.4 433.5 594.6 428.8 597.6 421.1 594.6 418.8 588.4 416.2 587.3 411.2 590.6 403.1 587.9 398.7 582 394.8 580.1 392 581.1 386.1 579.4 381.2 584.7 385.4 590.3 378.6 591.9 376.1 594.5 381.9 601.9 385 610.7 381.9 618.5 379 620.2 374.5 620 374.9 622.7 364.7 618.5 359.8 620.7 353.5 614.4 343.1 613.3 336.6 610.3 325.1 614.2 318.3 611.2 315.1 607 310.3 608.1 309.6 601.8 305.5 599.4 305.9 603 299.9 603.1 296.6 598.1 292.6 595.1 292.2 584.4 304.5 581.7 304.3 577.7 300.6 573.9 300.9 566.2 294.4 561.7 295.4 558.2 293.3 553.8 295.4 551.7 295.3 546.7 283.1 534.9 282.4 531.5 290.7 526.1 287 515.4 281.3 510.5 278.8 511.4 274.7 519 260.5 524.8 252.2 532.1 249.6 533.3 244.1 529 240.9 530.4 240.5 538.8 233.8 532.4 230.5 527.7 229.7 519.7 227.1 518.1 215.9 517.5 211.3 514.2 210.9 510.2 197.5 512.4 192.6 502.4 192.2 497.3 188.3 495 186.8 484.3 183.6 480.1 174 481.5 168.7 485.6 158.8 490.4 150 496.9 145.9 495.9 142.6 490.9 135.8 490.5 136.8 484.9 135 480.1 138.7 473.9 137 468.8 141.4 466.2 144.6 457.3 147.2 453.3 144.5 447 147.6 444.6 148.3 440.3 147.2 431.6 142.1 420.2 145 415.9 152.5 410.7 163.1 408.3 171.5 400.2 173.2 391.5 176 389.6 178.2 383.2 176.1 379.1 186.7 356.9 185.7 354.1 188.2 347.6 192.1 343.3 185.7 343.6 180.8 340.5 179.2 337.5 182.2 333.1 180 331.7 177 335 174.7 334.6 174.6 327.6 169 328 167.9 325.4 172.8 317.7 177.9 314.4 185.4 313.9 191.2 315.4 195.4 314.1 200 315.9 209.1 315 211.9 313.6 214.1 308.9 214.1 303.9 218.8 298 225.9 295.3 227.3 290.5 225.2 286 227.2 281.3 228.3 271.9 226.4 269 229.1 267.4 230.7 270.3 232.8 266.4 229 265 228.1 262 232.6 261.2 240.2 257.2 250.7 259.3 252.8 261.8 256.8 261.5 261.9 264.3 267.5 261.7 279.1 267.1 281.9 270.8 294.2 274.7 304.6 267.4 311.5 270.8 315.8 268.1 321.2 269.5Z"/><path class="rg" d="M33.9 917.1 38.1 920.5 43.6 920.1 45.1 922.6 50.7 921.9 57.4 924.2 58.2 926.5 61.8 923.6 64.8 926.2 70.6 923 75.4 923.7 78.6 918.8 78.9 911.4 81.4 909 92 909.2 93.4 914.4 101 917 103.1 922.6 105.9 925.5 114.8 926.8 125.5 922.8 125.8 920.4 131.5 918.1 133.5 915.5 139.8 917.9 144.1 915.1 143.3 910.3 145.9 911.4 145.2 917.3 148 917.1 149.1 912.8 153.3 910.1 160.6 909.6 163.2 914 161.2 915.1 158.1 927.7 163.5 932.1 167 932.4 170.9 929.9 180.3 931.3 179.5 934.3 183.2 939.4 185.3 953.1 188.6 954.9 191.4 950.9 197.7 950.8 197.2 955.6 206.8 955.2 206.4 951.9 212.8 951.7 214.4 946.1 223.7 939.9 227.5 944.3 232.6 947.6 238 945.9 239.7 939.9 242.7 945.9 243.4 943.4 247.8 943.7 249.6 946 247 948.5 248.6 953.9 253.5 960.8 263.1 967.7 269.8 975.1 273.3 976.4 274.9 973.9 272.4 965.9 281.1 962.1 288.9 960.6 294 964 300 961.7 304.6 962 303.6 965.6 310.6 963.4 322.3 963.6 330.9 970.3 333.7 967.8 338 970 338.6 975.6 341.7 979.9 342.2 988.2 350.8 993.4 354.4 1001.9 359.5 1006.7 364.9 1009.5 368.6 1022.4 372.7 1032.1 374.6 1034.1 383 1033.9 389.3 1040.5 396.9 1044.7 401.4 1050 409 1049.4 418.2 1050.1 421.5 1057 420.3 1059.1 423.4 1063.4 423.6 1067.3 430.2 1070 436.6 1070.9 441.3 1066.8 442.9 1069.1 440.4 1078.3 441.6 1086.9 440.4 1093.1 442.2 1100.4 441.1 1104.6 428.5 1112.2 427.1 1115.5 429.5 1124.2 433.1 1124.5 435 1135.5 432.1 1140.8 421.9 1146.1 415.4 1150.7 412.2 1154.5 406.5 1156.8 400 1155.6 396.2 1157 386.9 1154.9 379.8 1156.5 370.5 1151.7 365.2 1154.1 361.6 1153.3 364.5 1163 369 1162.1 374 1168.2 374.7 1172.5 369.7 1175.6 358.8 1174.9 346.8 1168.8 342.9 1164.4 341.1 1166.3 340.2 1177.1 343.5 1182 344.5 1186.1 339.1 1191.1 341.3 1198.1 339.5 1203.3 332.3 1210.6 327.6 1212 326.3 1217.9 323.4 1221 324.6 1233.1 328.1 1235.4 327.7 1245.3 324.3 1249.8 328.9 1261.6 329.4 1267.7 329.2 1270.4 324.8 1276.7 313.9 1278.1 306.2 1275.4 305.7 1269.4 303.8 1266.8 299.2 1268 303.9 1261.3 303 1257.9 305.1 1255.6 306.6 1248.6 316 1245.8 317.1 1241.5 304.8 1238.6 304.1 1231.1 308 1227.5 301 1227.6 289.9 1224.7 281.9 1216.8 274.5 1217.9 273 1214.1 268.8 1217.1 261.1 1215.5 259.5 1219.5 258.7 1228.1 256.2 1232 255.9 1237.3 253.2 1238.4 250.7 1235.3 241.1 1233.5 236.6 1235.3 225.3 1237.1 222.9 1234.1 213.7 1239.1 201.3 1242.7 196.6 1237.3 199 1234.2 195.6 1227.9 196 1220.3 200.2 1220.3 202.4 1215.5 200.5 1210.9 204.5 1209 211 1210.6 209 1201.3 206.2 1200.5 200.4 1202.5 195.4 1208.4 193.1 1208.3 189.9 1202.7 182.4 1199 180.9 1196.3 180.1 1188.1 176.8 1185.4 172.7 1177 169.3 1175 164.4 1176.7 157 1190.3 156.1 1193.8 145.8 1195.4 140.8 1177.8 136.2 1183 135.7 1191.7 136.6 1199 128.8 1205.9 126.1 1205.8 121.5 1201.3 116.1 1199 107.8 1198 99.8 1195.8 97.4 1193 85.7 1196.6 84.8 1193.4 88 1188 84 1187.2 80.3 1182.5 74.9 1183.4 72.8 1188.7 65.4 1194.8 64.8 1186.9 62.8 1182.6 64.2 1179.5 62.6 1173.3 60.4 1170.6 60.5 1161.7 53 1160.7 53.9 1150.6 51.4 1145.5 53.7 1141.7 53.5 1137.7 49.4 1132.9 50.7 1130 49.3 1123.7 44.7 1114.1 45.2 1109.4 41.4 1100.4 40.8 1092.7 43.1 1085.5 42.1 1078.5 45.8 1072.7 45.8 1057.8 43.2 1053.6 45 1043.6 48.3 1037.9 49.3 1030.9 45.7 1024.8 51.4 1015.4 51 1003.9 48.9 1000.4 50.2 992.9 45.4 989.7 40.8 983.6 36.1 973.9 30.8 970.3 32.4 965.4 35.7 968.6 39.1 968.1 38.8 962.1 41.7 958.4 39.4 955.9 35.9 959.6 35 957.2 37.7 952.3 34.4 949.7 29.7 949.3 32.5 947.3 35.6 941.3 36.2 936.3 33.2 934.9 35.6 932.5 36.5 927.6 34.5 925.2 27.7 923.4 27.3 921.2 32.3 920.2 33.9 917.1Z"/><path class="rg" d="M396.8 783.5 396.2 786.1 388.6 788.6 384.2 792.5 383.4 799 375.4 812.4 367.9 819.6 360.7 829.5 357.4 827.6 356.6 822.4 353.7 821.8 352.3 817.8 347.4 817.3 343.7 821.8 342.9 826.3 337.1 829 330.7 828.3 329.1 832.5 323.4 832.1 326.1 835.7 326.6 840.1 324.2 843.1 325.1 850.3 321.9 857.6 319.9 867.8 316.7 869.6 311.7 879.5 305.2 885 301.5 882.5 295 887.7 288.9 889.4 284.3 893.7 274 896 273.7 900.2 267.7 901.6 265.8 906.7 255 901 249.8 897.4 247.6 898.5 245 893.4 239.6 895.2 242.2 899.5 247.4 904 247.7 909.4 253.1 910.1 255.8 912.5 248 918.8 240.8 920.2 237.5 924.1 233.2 925.3 231.4 929.3 224.8 930.3 223.6 933 223.7 939.9 214.4 946.1 212.8 951.7 206.4 951.9 206.8 955.2 197.2 955.6 197.7 950.8 191.4 950.9 188.6 954.9 185.3 953.1 183.2 939.4 179.5 934.3 180.3 931.3 170.9 929.9 167 932.4 163.5 932.1 158.1 927.7 161.2 915.1 163.2 914 160.6 909.6 153.3 910.1 149.1 912.8 148 917.1 145.2 917.3 145.9 911.4 143.3 910.3 144.1 915.1 139.8 917.9 133.5 915.5 131.5 918.1 125.8 920.4 125.5 922.8 114.8 926.8 105.9 925.5 103.1 922.6 101 917 93.4 914.4 92 909.2 81.4 909 78.9 911.4 78.6 918.8 75.4 923.7 70.6 923 64.8 926.2 61.8 923.6 58.2 926.5 57.4 924.2 50.7 921.9 45.1 922.6 43.6 920.1 38.1 920.5 33.9 917.1 36.5 901.8 32.9 895.2 27.5 890.7 28.7 887.9 34.3 888.5 39.7 891.7 41.4 889.2 36.4 887.4 36.8 883.4 43.3 882.4 50.5 871.7 57.5 865.6 58.4 858.6 66.8 850 79.4 831.9 81.4 825.8 86.7 824.6 84.6 817.2 87.4 815.3 87.6 809.6 77.5 807.1 75.3 801.5 78.8 788.5 97.1 785.5 99.6 780.6 99.8 772.9 102.1 768.9 102 764.6 106.5 757.9 102.2 751.6 100.6 740.4 106.2 737.7 106.8 734.8 102.8 730.5 96 728.5 89.8 724.7 89.2 721.5 91.7 719.1 98.2 717.3 99.1 712.8 95.3 709.2 84.9 704.5 81.2 700.2 79.2 692.5 71.1 679.1 67.4 671.8 59.8 668.6 55 665.1 54.2 660 55.9 657.2 52.3 651.3 51 645 52.4 639.5 51.1 630.9 54.8 624.6 52.8 619.2 52.3 610.2 55.3 604 61.8 604 63.5 602.4 63.6 595.6 65.4 583.3 69.9 580.7 77 581.5 82.7 579.4 88.9 569.9 98.1 566.1 99.7 558.7 103.3 549 106.9 546 112.2 547 115.2 549.3 121.5 546 120.9 532.5 127.8 529.9 128.2 519.8 130.2 515.3 125.8 513.8 122.8 504.6 125.7 497.2 129.5 493.4 129.3 486.1 135 480.1 136.8 484.9 135.8 490.5 142.6 490.9 145.9 495.9 150 496.9 158.8 490.4 168.7 485.6 174 481.5 183.6 480.1 186.8 484.3 188.3 495 192.2 497.3 192.6 502.4 197.5 512.4 210.9 510.2 211.3 514.2 215.9 517.5 227.1 518.1 229.7 519.7 230.5 527.7 233.8 532.4 240.5 538.8 240.9 530.4 244.1 529 249.6 533.3 252.2 532.1 260.5 524.8 274.7 519 278.8 511.4 281.3 510.5 287 515.4 290.7 526.1 282.4 531.5 283.1 534.9 295.3 546.7 295.4 551.7 293.3 553.8 295.4 558.2 294.4 561.7 300.9 566.2 300.6 573.9 304.3 577.7 304.5 581.7 292.2 584.4 292.6 595.1 296.6 598.1 299.9 603.1 297.8 607.6 291.5 609.5 290.2 611.5 286 610.5 280.7 612.5 280.8 616.5 275.7 622.2 266.9 626.6 263.5 630 252.6 631.5 248.8 633.9 248.6 636.4 244.4 638.5 242.8 642.1 245.1 645.3 243 649.6 247 656.1 248.4 664.8 253.5 670.6 255 677.6 248.7 681.7 252.4 683.9 253.1 689.6 266.8 687.4 268.8 688.5 274.5 686.8 278.8 683.2 286.5 685.2 286.5 688.8 290.5 692.2 290.5 694.4 298.1 698 300.3 703 317.8 703.8 319.5 712.1 322.1 716.2 329.6 722.8 333.6 720.7 338.8 720.2 340.9 723.3 348.7 721.7 353.8 722.1 356.8 726.3 367.6 732 367.3 741.4 377.3 751.7 378.5 757 382.7 759 389.3 757.8 389.9 762.1 386.1 768 390.2 768.6 393.6 774.8 389.2 776.8 394.4 779.4 396.8 783.5Z"/></svg>