<svg xmlns="http://www.w3.org/2000/svg" viewBox="0 0 820 891.4" class="travel-map" preserveAspectRatio="xMidYMid meet"><path class="rg" d="M664.2 330.3 667.3 338.3 670.6 348.5 670.2 350.8 674.5 358.1 674.6 359.5 677.8 362.9 677.1 365.4 680 366.1 683.3 365.1 687.9 362.9 691.6 362.8 690.2 366.7 686.8 370 683.3 372.7 682.7 374.6 680.8 374.9 677.2 374.7 674.8 375.1 674.5 373.6 671.8 372.3 665.4 375.1 664.9 376.7 667.3 377.7 666.7 380.2 663.8 382.5 661 379.8 659.4 379.3 651.4 382.2 643.4 383.5 642.2 384.6 642.6 386.4 644 388.1 644 389.8 642 391.5 641.4 394.9 637.9 396 635 399.1 631.5 400.9 631.2 404 632.4 405.4 633.7 410.3 636.1 411.1 637.6 412.3 638.1 415.8 639.7 415.8 640.5 419.2 641.9 427.3 643.3 427.9 647.4 426.6 650 427.9 651.4 430.5 651.1 434.5 650 439.6 647.8 445.5 646.6 450.6 645.5 451.8 637.8 452.8 636.4 453.8 635.4 456.6 634.9 469.2 635.2 476 636.7 477.4 636.9 479.5 635 484.5 632.6 483.8 631.1 486.1 632.6 488.2 631.1 491.6 627.8 492.7 621.1 491.7 618.2 492 612.1 493.8 611.9 494.8 609.2 495.9 610.1 501.7 612.6 501.5 614.4 503 615.6 502.4 618.1 503 619.2 501.8 620.5 502.2 620.9 507.1 619.4 508.7 619.6 510.3 625.6 510.9 628.3 509 630 508.8 631.1 510.2 630.6 511.9 633.3 515.6 633.9 519.3 632.7 522.1 632.9 525.4 635.2 528.3 634.7 531.2 636.4 530.9 638 528.9 639.4 528.9 639.7 531.8 643.2 530.9 643.9 529.3 643.4 527.9 646 526 646.8 524.2 648.5 523.7 650.5 524.1 651.4 523 649.8 522.3 649.6 519.5 650.4 517.4 648.8 512.9 646.1 511.8 644.7 508.3 646.2 507.2 647.4 504.5 649.5 503.1 650.7 503.3 652.1 500.4 655.7 498.9 661.6 494.9 662.8 495.3 662.9 497.5 660.7 500.6 660.9 503.1 662.2 504.7 665.7 504.1 671.1 507.3 671.2 509 669.5 511.3 671.9 513.2 676.3 514.3 678.5 513.2 679.4 514 678.9 516.4 676.2 519.6 673.3 520 671.6 518 667.8 519.7 666.7 520.8 666.1 524.9 666.7 527.1 669.3 528.1 669.8 529.7 671.5 529.3 672.9 530.5 675 530 675 531.9 673.9 535 672.4 535.5 670.9 533.2 668.7 532.8 666.6 534.1 664.9 534.2 660 538 658.2 538.7 657.9 541.7 661.5 542.8 659.6 545.9 656.9 545.7 653.9 541.9 650.5 541.3 647.9 538.7 647.9 537.4 646 537.7 644.2 536 645.3 533.5 644.1 533.6 643.2 532.2 638.8 533.4 637.5 536.7 634.4 538.6 637.3 539.5 638.4 538.6 640.2 539.7 640.1 537.8 642.4 538.3 642.8 541.4 642.1 543.5 640.3 543.5 640.1 545.5 641.5 550.2 640.7 551.3 639.7 550.6 638.1 551.9 635.7 552.7 637.8 553.2 640.2 551.8 640.4 553.6 638.8 555.6 636.6 556.4 632.6 556 630.1 557.2 628.7 555.1 630 553.8 627.9 550.6 627.7 548.7 629 545.3 627.4 542.4 627.9 540.1 626 535.6 623.8 536.4 623.1 539.5 625.9 542.3 627 544.8 625.2 546.1 624.7 547.7 622.5 548.6 621.9 551.3 619.1 552.3 619.4 550.1 617.1 549.3 613.9 551.3 613.2 552.7 611.3 551.1 612.3 549.3 614.6 547 615 545.7 611.4 540.8 612.1 536.2 607.4 536 606.4 538.4 605 540.2 604.3 542.8 603.4 542.6 603.4 539.8 602 538.3 604.9 535.5 603.9 533.8 604.1 531.4 605.8 527.4 602.9 526.3 601.1 528.5 597.1 527.4 596.5 525.1 589.7 522.4 588.5 525.3 587.4 531.4 589.3 536.8 589.1 542.8 578.1 542.9 573.9 539.7 573.6 535.4 575.5 530.4 572.7 530.1 572.7 528.3 566.6 532.1 565.4 531.5 564.8 527.6 567.2 528.2 568.4 525.5 570.5 523.7 570.7 521 569.1 518.3 567.9 514.2 563.9 517.8 563.6 516.6 560 515.9 558 513.8 557.6 512.3 556 510.5 557.1 509.9 558.3 510.9 558 508.8 556.8 509.2 556.9 507.4 555.7 507 555.1 504 552.1 501.3 552 498.9 553.9 494.7 554.1 493.3 555.6 493.4 553.9 491.7 553.4 489.4 555.1 488.8 553.8 487 550.5 486.3 554.3 482.9 555.2 480.5 551.9 478.9 547.4 478.6 544.8 479.5 544.5 478.5 542.5 479.7 541.5 479 537.8 480 536.5 481 533.9 480.8 532.1 482.2 525.5 482.8 521.4 486.4 522 482.7 521.3 479.1 521.6 477.6 519.9 479.7 518.6 480 516.3 482.8 516.2 483.9 513.6 484.7 509.9 488.4 508.5 489.1 509 487.2 505 488.1 502.5 487.2 500.4 485.1 497.9 484.9 496.1 486.6 497 487 495.8 488.8 491.3 491.4 489.3 490.9 488.1 489.5 486.6 492.7 485.5 492.9 484.1 494.8 483 494.5 483.7 491.2 483.5 489.8 480.3 492 477.7 490.7 477.6 489.8 474.8 489.8 475.1 488.6 473.7 487.2 471.3 486.6 468.1 487.2 467.6 489.2 466.6 489.3 464 487.2 464.3 489 463.1 489.4 463.1 491.6 462 491.9 460.2 490.7 459.5 493 458.3 491.3 458.5 493.1 457.5 493.7 456.6 492.4 452.8 494.2 452.2 496 449.4 496.5 447.2 493.5 444.2 490.9 442.1 487.5 440.1 486.8 437.8 484.9 436.8 485.4 433.8 483.1 432.8 477.3 431.6 475.9 431.1 472 428.3 469.9 427.2 468.2 425.6 467.5 427.4 465.4 428.1 461.5 429.4 462 432.2 459.9 430.7 456 429.7 455.4 430.3 453.4 431.7 452.8 431.5 451.6 434.1 448.1 434.7 447.9 439.3 452.2 438.7 457.8 441.5 456.8 441.5 454.8 440.6 451.7 442.1 450.7 442.9 451.4 446.7 452.1 447.5 454.1 448.5 453.7 446.7 451.1 448.7 446.8 447.9 445.1 448.9 440.7 448 439.9 448.8 438.4 447.8 437.1 448.6 435.2 448.1 428 449.2 424.8 448.2 421.6 454.3 421.8 458.5 421 460.9 422.9 462.4 422.3 461.2 421.1 462.6 418.4 461 418.4 460.4 415.1 459.5 414.2 459.2 411.3 460 407.9 457.7 408.6 456.4 406.8 456.3 401.2 456.9 399.7 458.8 399.8 457.9 398 458.6 394.5 460.1 393.5 462.3 393.4 463.9 394.3 464.4 393.3 462.1 390.2 464.2 388.6 467.5 388.8 470.9 390.6 472.9 390 473.8 387.1 474.6 385.6 473.5 381.2 476.3 379 476 378.1 478.5 378.1 477.5 376.9 477.7 374.5 481 371.5 482.6 369 487.8 369.3 488.1 370.1 491.5 371.2 494.9 369 495.7 365.2 492.5 362.8 490.2 359.2 488.1 358.1 489.6 353.9 484.3 350.6 485.1 348.8 485.1 344.6 488.3 341.9 487 338.7 487.2 337.1 489.6 337 493 338.1 493.2 340.4 495.4 341 496.8 342.4 496.7 345 495.5 346.5 497.8 348.8 497.7 351.8 500.6 352.9 505.1 350.4 506.1 347.8 507.5 347.3 508.1 345.4 513.9 343.2 517.2 343.3 519.2 345.5 521.2 344.8 521.9 342.3 521.3 340.7 519.5 340.3 519.6 338.5 520.9 337.1 521.8 334.3 524.2 333 526.9 332.8 528.8 333.7 529.9 330.6 528.5 329.1 530.6 328.7 531.9 325.4 532.2 322.3 534 322.7 534.4 320.7 538.2 320.9 539.3 319.7 542.1 321.8 542.5 323 540.6 324.3 540.2 325.8 541.7 326.5 544.8 326.8 546.5 325.1 546.7 328 548.5 329.6 549.1 331.8 552.3 331.2 553.4 332 554.6 330.9 556.4 331.4 557.7 329.9 560.3 328.9 562.6 326.2 564 327.2 565.8 330.5 565.8 332.2 568.1 334.6 571.1 333 572.3 330 576.6 332.5 577.6 325.9 579.9 322 582.8 322 583.5 323.2 582.6 325 585.5 324.3 586 323.2 588.2 322.2 587.5 320.8 588.7 319.8 590.3 320.6 592.1 320.1 593.5 318.2 593.6 316.4 594.9 316.1 598 317.1 599.4 316 597.2 315.1 598.3 314 601 315.8 605.2 314.7 608.1 315.3 609.3 314.5 613.8 316.4 614.9 319 618.9 324.5 617.8 325.3 619.6 327.7 623.2 328.9 623.4 330.7 624.8 330.4 628.1 332.1 629.8 331.5 631.4 332.4 632.3 334 634.4 335.2 637 333.8 640.6 334.2 641.6 332.4 643.2 332.1 644.4 328 647.3 326.2 652.2 328 654.8 326.3 654.7 324.9 658.1 324.7 661.3 326.6 663.3 328.5 664.2 330.3ZM781.3 363.1 782.2 362.2 783.9 363.3 784.4 365.2 783.2 364.5 781.7 366.7 779.5 366.2 779.8 364.3 778.8 362.9 777.5 363.9 778.4 361.4 779.5 361.4 779.8 363.6 781.3 363.1ZM681 510.9 678.4 509.8 677.1 509.9 677 506.4 678.1 507.8 680.4 507.3 680.6 506.2 682.2 507.4 682.3 509.5 681 510.9ZM627.2 502.5 624 501 625.2 498.9 625.9 501.2 627.3 498.2 630.3 496.1 630.8 495.1 632.8 494.7 632.3 497.5 630.7 499.9 628.5 500.7 627.2 502.5ZM698.9 392.4 694.6 393.7 694.2 396.5 692.8 396.9 692.9 392 695.9 390.7 698 388.5 701.3 390.5 700.6 393.7 698.9 392.4ZM692.4 442.9 692.6 441 693.9 439.3 696.7 439.3 694.4 441.7 692.4 442.9ZM648.2 553.8 647 551.1 650.2 550.3 651.5 549 652 550.9 653.4 552 651.9 553.1 648.2 553.8ZM646.4 563 645.4 562.4 645.9 560.8 645.2 558.9 646.4 556.7 647.9 555.8 648.3 557.4 647.3 558.5 649.4 561 646.8 561.6 646.4 563ZM637.8 408.5 637.7 407.6 633.7 406.7 631.5 403.7 631.8 400.9 635.2 400.3 637.8 403.3 640.2 404.2 639.6 405.7 639.8 407.9 637.8 408.5ZM686 407.6 683.2 406.4 684.2 403.8 684.1 400.9 686.6 401.1 685.9 402.7 688.7 403.5 689.6 402 692.8 402.2 691.2 405.1 690.5 404.8 688.6 406.6 687.2 406.5 686 407.6ZM678.4 355.8 678.7 354.1 679.9 355 678.4 355.8ZM609.4 557.8 608 557.4 609 555.2 611.9 554.1 611.4 556.7 611.7 558.1 609.4 557.8ZM641.1 498.8 643.3 496.6 644.5 498.2 648.4 497 650.2 495.4 651.1 500.1 649.6 501.1 647.9 500 647.1 500.7 642.9 501.4 641 499.8 641.1 498.8ZM642.9 478.2 642.8 476.5 644.6 477.1 642.9 478.2ZM643.4 409.4 643.6 411.5 641 407.6 643.3 406 644.7 406.3 643.4 409.4ZM657 564 658.8 563.9 658.2 565.6 657 564ZM683.7 354.4 684.2 356.1 682.2 356.5 683.7 354.4ZM697.8 387.8 698.3 386.5 699.8 386.4 697.8 387.8ZM687.3 439.5 685.9 437.9 686.1 436.7 689.3 436.5 690 437.1 687.3 439.5ZM637.2 494.1 637.9 493.1 640.6 492.5 637.5 494.9 637.2 494.1ZM595.3 538.4 596.3 536.8 596.7 538.1 595.3 538.4ZM636.7 411.2 636.7 410.2 638.6 410.6 638 412.3 636.7 411.2ZM638.9 495.4 640.9 493.9 642.7 496 641.3 497.3 638.6 497.3 638.9 495.4ZM695.7 383.5 694.9 382.6 696.9 380.2 697 382.9 695.7 383.5ZM735.2 370.6 735.5 369.3 737.3 368.8 735.2 370.6ZM627.2 494.7 629 493.7 627.6 496 627.2 494.7Z"/><path class="rg rg--travel" d="M369.5 728.7 366.1 728.3 362.2 728.6 360 727.8 358.8 725.8 357.1 725.6 355.2 723.9 354 721 354.9 717.1 354.3 713.2 350.8 710.9 349.7 708.4 346.5 707.1 346.7 704.7 345.9 703 346.7 700.6 342.1 696.5 343.3 695.1 343.2 692.5 347.9 692 349.6 688.6 353.7 685.5 354.2 682.3 355.5 681.4 353.8 674.4 352.6 673.8 351.4 668 352.5 664.3 353.7 663.7 354.8 659.5 354.4 652.8 355 649.5 353.9 648.8 351.2 648.9 348.6 645.2 346.6 644.1 347.4 642.4 349.5 643.1 350.6 644.8 352.4 643.9 354.2 644.5 356.4 648.3 361.1 646 359.8 644.7 360.8 642.8 363.3 643.2 363.7 642.3 362.1 640.8 359.7 639.9 360.8 638.6 362.8 639.9 363.9 638.2 367.5 638.6 368.4 641.7 371.2 644.8 372.4 643.1 373.4 643.3 373.5 645.7 374.4 647.1 375.7 645.3 379.7 643.2 380.4 643.3 382.4 640.7 384.5 639.5 386.6 640.1 388.5 639 391.1 639.8 394.1 639.9 395.6 641.9 394.5 642.3 394.5 644.8 399.3 647.7 399 650.1 400.3 652.4 402.2 652.6 403.7 651.4 405.7 652.5 409.1 651.2 412 652.4 413.8 656.3 416.1 657.6 415.6 660.3 417.6 662 418.2 660.9 419.3 662.5 418 662.7 417.7 666.1 414.6 666.8 415.5 669.7 417.2 670.5 417.9 672.5 415.5 676.3 415.6 677.4 418.3 679.3 418.3 680.9 420.5 682.6 420.3 685.5 419.1 686.8 419.7 689 419.3 690.8 418 691.4 416.8 693.7 417.1 695 418.7 693.3 418.8 696.1 420.7 697.5 421.1 699.2 424.2 699.2 422.5 700.6 424.8 701.9 424.1 704.5 424.5 706.6 422.5 707.7 419.7 707.7 410.1 709.1 402.2 711.1 395.8 707.2 389.8 702.3 388.5 699.9 386.6 697.8 381.7 700.3 379.1 703.7 377.8 704.4 375.5 707.8 372.1 720.1 370.1 723.7 369.5 728.7ZM395.7 712.5 396.1 716.9 394.8 719.3 387.6 725.7 385.4 728.2 383.9 728.4 379.2 727.5 376.2 726.3 373.1 721.8 372.9 719.4 374 714.4 376.3 707.3 378.2 704.4 380.1 703.1 385.3 701.9 387.5 704.5 389.9 704.8 393.5 706.5 395.2 708.6 395.7 712.5ZM425 703 426.1 702.2 427.7 703.2 425.9 703.7 425 703ZM373.3 725.5 371.8 725.1 370.8 723.7 371.7 722.2 373.9 723.3 374.3 724.9 373.3 725.5Z"/><path class="rg" d="M566.6 532.1 562.7 537.2 562.6 540.2 560.7 539.9 558 537.7 555.1 540 554.1 544 554 547.2 555.1 548.2 557 547.4 558.4 549.5 562.4 550.9 566.4 551 568 554.2 567.8 555.3 569.3 557.9 570.1 560.5 571.4 560.7 571.2 557.4 572.3 557 574.6 558.2 578.8 557.9 579.9 558.3 582.3 562.5 586.1 566.4 589.1 567.3 591.8 569 594.4 568.2 593.3 573.2 589.5 574.9 587 574.7 585.5 576.6 582.3 575.4 579 575.8 580.4 581.5 582.3 583.4 582.3 584.4 580.2 586.5 579 586.4 574.9 589.9 573.5 587 568.6 584.5 566.7 584.8 563.1 586.8 560.3 586.5 554.3 581.6 552.9 577.8 551.8 578.1 549.6 580.1 547.8 583.5 549.6 586.9 553.5 588.1 553.8 590.3 552.9 591.4 554.2 592.4 556.7 591.6 557.5 592.6 557.2 597.5 556.2 602.6 553.4 604.3 553.2 609.3 554.3 609.4 550.7 615.9 551.1 617.5 549.7 617.5 549.7 614.9 547.5 613.7 547.4 611.5 544.7 610.1 545.9 609.3 548.7 610.1 549.4 609 547.6 605.7 551.3 602 553.5 601.7 552.2 600 543.5 599.5 542.3 601.1 538.4 598.8 538.3 598 535.6 596.3 534.5 593.7 534.4 589 535.9 587.1 538.7 588.3 540.2 587.3 541.7 584 542.1 580.3 540.5 581.2 538.9 578.8 532.9 580.4 531.7 581.6 527.9 582.1 527.9 580.2 526 578.1 525.4 575.4 526.8 575.3 527.7 572.3 529.1 570 530.7 572.1 532.5 572 533.6 569.7 532 568.5 528.7 568 526.8 569.4 521.9 569 521 570.2 517.8 571.9 515.4 571.7 515.8 573.8 509.9 574.7 507.6 575.3 507.6 577.2 504.4 579.3 504.1 577.7 500.6 579 496.1 579.2 496.1 578.5 492.9 579.8 492 581.7 492.3 583.3 490.1 583.3 486.6 585 486 584.8 483.4 588.2 482 588.1 479.9 590.3 477.7 590.8 477.8 588.1 475.4 586.6 475.4 584 474.7 582.3 476.1 582.2 477.7 580.1 476.1 580.1 476.3 576.7 477.1 575.9 476.5 574 478.4 571.4 475.8 569.1 474.5 570.3 472.7 570.1 472.3 571.6 470.1 569.6 470.7 568.5 472.8 567.4 473.4 565.6 471.6 563.3 467.8 563.4 466.6 564.9 464.9 565 461.6 563.2 458.6 563.4 457.5 566.2 456.1 565.5 451.1 565.3 450.5 562 451.4 559.8 450.2 558.9 448.9 561.4 447.6 560.4 449.2 557.3 449.2 554.8 450.5 552.8 448.9 551.9 448.5 550.2 446 547.8 444.5 547.6 445 544.8 443.4 544.2 442.4 540.2 440.4 540.5 438.7 536.8 440.6 532.5 441.6 532.1 442 529.8 439.8 529.5 441 527.9 439.7 527.2 439.5 523.2 441.1 521.7 444 517.5 443.8 516.9 447.1 514.7 447.4 511.5 450.7 507.2 451 506.1 453 504.2 453.9 501.5 450.7 499.6 453 497 452.2 496 452.8 494.2 456.6 492.4 457.5 493.7 458.5 493.1 458.3 491.3 459.5 493 460.2 490.7 462 491.9 463.1 491.6 463.1 489.4 464.3 489 464 487.2 466.6 489.3 467.6 489.2 468.1 487.2 471.3 486.6 473.7 487.2 475.1 488.6 474.8 489.8 477.6 489.8 477.7 490.7 480.3 492 483.5 489.8 483.7 491.2 483 494.5 484.1 494.8 485.5 492.9 486.6 492.7 488.1 489.5 489.3 490.9 491.3 491.4 495.8 488.8 497 487 496.1 486.6 497.9 484.9 500.4 485.1 502.5 487.2 505 488.1 509 487.2 508.5 489.1 509.9 488.4 513.6 484.7 516.2 483.9 516.3 482.8 518.6 480 519.9 479.7 521.6 477.6 521.3 479.1 522 482.7 521.4 486.4 525.5 482.8 532.1 482.2 533.9 480.8 536.5 481 537.8 480 541.5 479 542.5 479.7 544.5 478.5 544.8 479.5 547.4 478.6 551.9 478.9 555.2 480.5 554.3 482.9 550.5 486.3 553.8 487 555.1 488.8 553.4 489.4 553.9 491.7 555.6 493.4 554.1 493.3 553.9 494.7 552 498.9 552.1 501.3 555.1 504 555.7 507 556.9 507.4 556.8 509.2 558 508.8 558.3 510.9 557.1 509.9 556 510.5 557.6 512.3 558 513.8 560 515.9 563.6 516.6 563.9 517.8 567.9 514.2 569.1 518.3 570.7 521 570.5 523.7 568.4 525.5 567.2 528.2 564.8 527.6 565.4 531.5 566.6 532.1ZM608.9 582.9 604.3 582 603.8 580.2 604.7 578.2 603.5 575.5 606 575.6 605.6 574.5 608.3 573.7 608.9 571.3 610.2 571.6 610.2 574.3 611.8 573.6 613.6 574.9 613.6 578.3 614.8 579.6 616.2 579.7 616.8 580.9 620.5 582 621.3 580.5 623 581.7 624.9 580.5 626.9 581.5 625.7 583.6 622.9 583.7 623.1 585.5 621.8 585.9 622.9 589.1 617.7 590.2 617.3 588.6 615.3 587.8 615.2 585.8 608.9 582.9ZM627.2 570.4 625.7 571.3 626.8 569.3 627.2 570.4ZM592.2 598.3 591.3 597.7 591.8 595.7 593.2 597.3 592.2 598.3ZM616.6 570.3 615.8 569.9 616.9 567.6 618 567.7 618.9 570.1 616.6 570.3ZM537.7 600.8 539.4 600.6 537.9 602.1 537.7 600.8ZM629.2 584.8 629.8 583.4 630.9 584.7 629.2 584.8ZM587.2 561.4 586.5 560.6 587.7 559.2 588.4 560.2 587.2 561.4ZM627 573.3 628 572.9 628.5 574.7 627 573.3ZM532.6 587.4 532.2 585.7 535.1 584.4 535.7 585.3 534.1 587.7 532.6 587.4ZM591.5 558.7 590.7 557.3 593 558.5 591.5 558.7ZM607.2 623.1 605.3 620.8 606.9 621.3 607.2 623.1Z"/><path class="rg" d="M313.8 524 311.2 523 309.4 524.3 308.8 522.8 308.9 519.7 310.4 515.8 311.7 515.1 315.1 517.3 318.4 513.1 318.9 508.2 313.9 509.3 310.1 503.1 306.8 500.4 304.4 495.5 301.7 494.3 299.9 495.1 295.9 498.1 294.2 498.3 291.9 495.1 293 493.7 290.7 489.9 287.2 489.2 285.4 488 284.2 484.6 283.2 484.1 280.3 485.6 278.3 488.3 276.7 487.2 276.1 484.6 277.6 482.2 275.4 482.7 275.1 481.5 270.7 482.1 270.3 482.9 272.5 483.7 272.1 485.1 269.9 486.5 267.2 494.5 266.3 495.3 261.4 496.5 259 496.6 258.6 494.9 260.6 490.6 259.7 482.5 258.9 482.2 258.8 484.9 257.4 483.8 256.4 479.9 257.4 478.9 256.2 473.4 252.6 472.8 251.6 473.8 251.2 478.3 249.1 478.9 244.6 481.2 240.9 481.8 237.9 484.2 237.7 486 234.8 491.2 235.9 492 239.2 491.2 241.1 493 240.7 495.4 235.7 499.5 233 501.2 232.4 504.1 230.1 506.9 229.3 509.2 228.3 509.6 226.4 513.1 228.7 513.1 226.2 515.2 223.8 512.2 220.9 513 221.3 508.2 219.7 505.1 216.9 501.8 216.6 499.6 215.3 498.2 210.6 496.8 206.7 497.7 205.1 494.8 206.5 494.8 205.1 491.8 202.7 491.5 204.4 490.2 204.5 487.2 203.2 484.9 202.2 485.9 201.1 484 203.9 482 202.8 480 203.8 478.1 202.6 476.3 202.5 472.7 199.1 468 197 460.2 194.4 459.3 190.7 459.9 188.1 461.4 185 462.2 181.8 459.8 178.9 459.9 176.9 460.8 174.9 463.2 173.7 465.6 172 466.7 170.3 470.7 165.7 472.5 162.7 473.1 156.5 467.9 155.7 466.6 156.1 464.1 158.3 459.6 155.8 459 151.9 461.1 150.6 460 149.8 453.3 148.8 451.5 145.8 450.2 143.8 448.3 140.7 447.8 139.7 445.8 138.1 445.6 136.9 444.1 134 443.4 134.2 440 133.2 438.5 133.2 436.4 134.6 432.8 130.6 430.1 129.9 434 127.6 435.6 124.6 434.3 122.6 436.2 117.8 434.5 115.3 433.3 108.1 439 105.7 437.4 105.5 432.9 104.5 430.9 103.2 430.2 98.6 429.7 95.3 428.7 92 426.5 92.2 424 95.1 422.5 95.7 420.4 99.3 417.9 101.8 415.5 105 413.5 107 411.4 107.1 408.6 105.8 406.9 105.8 402.7 104 399.9 102.7 399.9 101 401.6 98 402.7 94.5 402.8 90.7 400.8 91.9 397.1 92 394.5 90.4 393.4 90.8 392 89.5 388.1 91.3 386.9 90.6 384.7 92.3 381.2 95.1 380.4 95.7 378.1 94.2 376.9 96.6 376.5 98.2 375 98.5 372.5 101.1 370.6 102 368.1 108.8 365.1 107.9 363.6 108.5 360.2 110.7 359.5 110.9 357.4 112.1 355.9 114.5 356.2 114.6 357.7 116.4 358.3 117.9 357.8 118.8 360.5 117.9 364.3 120.8 363.3 123 364.2 125.9 362.9 127.2 360.9 127.4 358.9 126.4 356.7 126.4 354.9 127.5 351.6 130.4 349.3 130.7 346.7 131.9 345.5 132.1 342.9 127.5 343.4 125.2 341.9 125.9 340.9 123.8 339.5 125.5 337.2 123.5 335.4 122.1 335.1 122.2 333.2 119.4 330.7 115.7 328.6 115.7 326.4 117.8 324.9 118.8 321.1 119.2 316.5 120.4 312.5 119.9 311 117.3 310.8 116.4 309.2 112.2 304.5 110.8 300.1 111.4 297.8 115.2 294.7 117.3 292.1 118.7 289.2 118.6 287.8 116.9 284.6 116.2 282.2 116.3 279.1 117 275.5 118.5 273.3 120.4 271.9 126 266.4 131.2 257.9 135.6 252.6 139 249.6 143.3 247.2 148.2 246.7 152.1 248.5 153.4 245.5 156.3 243.7 162.3 242.1 168 243.8 169.6 243.4 172.8 240.6 175.2 239.4 177.8 239.1 180.8 239.7 182.3 241.9 184 238.4 187.5 234 193 230.5 198.4 228.7 201.9 226.6 203.8 225 205.3 227.3 207.6 227.9 209.2 225.5 210.2 225.5 213.6 228.1 216.5 227 218.1 225.4 220.1 224.9 223.3 228.1 225.1 232.2 226.7 234.5 230.9 236.2 233.8 237.8 234.1 239.3 235.9 239 236.9 236.8 239.5 234.7 240.4 234.7 241 231.3 240.2 228.6 241.7 226.6 241.5 224.6 238.9 224.2 239.5 221.9 241.2 221.4 243.8 223.1 247.7 224.3 248.4 225.5 251.5 227.5 254.5 226.5 257.5 226.9 257.4 232.6 259.5 232.9 261.3 235.7 266.9 233.4 266.8 234.6 264.7 237.3 266.4 236.8 267.9 237.6 268.3 240 267.8 241.3 268.8 242 269 244.6 270.1 244.9 271.3 243.6 273.5 243 274.6 241.3 274.7 243.9 279.2 243.9 281.1 245.2 282.1 244.8 282.9 246.4 284.9 246.9 283 248.7 282.5 253 278.5 254.5 277.8 256.1 278 259.3 279.6 260.6 281.3 259.5 284.6 260 285.8 258.6 287.6 259.9 290.4 259.9 292.2 265.6 294.3 267 296.1 269.4 297.3 269.5 299.1 272 299.8 275.3 301.1 276.2 302.8 279.3 305.9 282.1 305.1 284.6 306 286 303.4 289 302.9 291.6 301.7 293.9 299 295 298 296.8 296 296.5 294.1 300 292.9 301.1 294.9 302 294.7 304.2 300.8 306.4 301.5 309.9 305.6 309.7 304.5 311.7 305.3 313.9 307.2 313.5 308 312.2 310.1 312.7 311.1 310.5 315.4 308.5 318.3 309.4 320.8 309 322.4 310 324.1 307.9 326.3 308 328.2 307.1 330 307.8 330.8 307 332.1 307.8 334.3 306.1 336.7 305.5 337.5 306.4 335.7 309.2 337.5 310.3 336.9 312.9 339.5 314.5 339.2 316.2 336.6 316.6 337.1 320.1 338.7 320.9 338.1 323.7 339.8 323.9 340.8 328.4 341.8 327.1 344.4 325.8 344.7 327.1 348.3 328 351.2 325.3 352.9 327.2 356.3 326.4 357.4 327.4 358.3 326.4 357.7 324.4 360.4 324.6 363.2 326.1 360.4 329.5 360.1 331.6 362.4 333.6 361.9 337 364.8 337.6 367.7 336.8 368.8 338 367 339.6 367.8 341.3 366.3 343.2 367.6 345.7 368.9 344.1 371 344.8 371 346.4 372.3 347.8 371.3 350.4 372.6 352.7 375.2 353.3 376.4 354.9 376 356.6 376.7 358.6 380.4 358.9 380.5 361.7 383.4 362 384.2 364.2 387.2 361.7 389.5 361.6 389.5 360.2 391.8 359.9 393.2 361.3 395.4 360.5 397.7 358.8 397.5 357 399.1 356 402.3 357.2 401.8 358.6 404.1 358.9 405.5 357.9 405 356 406.7 353.6 408.3 353.6 410 355.1 411.8 354.1 411.3 351.9 412.9 350.7 413.6 352 415.7 352.2 417.4 350.7 417.3 353 415.6 354.2 416.5 356.4 418.8 356.1 419.3 354.8 420.2 356.9 422.3 357.7 423.8 356 427.5 358.9 430.1 358.9 432 358.2 435.9 358.8 437.6 357.2 437.8 360.3 436.8 361.1 434.8 359.2 433.1 361.6 433.3 363.5 434.8 366.1 437.1 367.3 437.7 369.3 440.1 368 444.6 364.5 445.6 364.4 448.5 366.8 449.9 369.8 451.9 369.6 452.6 368.6 454.8 368.7 456.2 369.8 455.8 371.8 461 372.1 460.7 373.5 462.2 375.7 463.6 375.8 464.8 378.7 467.4 378.7 468 381.8 469.3 383.3 471.7 383.5 473.8 387.1 472.9 390 470.9 390.6 467.5 388.8 464.2 388.6 462.1 390.2 464.4 393.3 463.9 394.3 462.3 393.4 460.1 393.5 458.6 394.5 457.9 398 458.8 399.8 456.9 399.7 456.3 401.2 456.4 406.8 457.7 408.6 460 407.9 459.2 411.3 459.5 414.2 460.4 415.1 461 418.4 462.6 418.4 461.2 421.1 462.4 422.3 460.9 422.9 458.5 421 454.3 421.8 448.2 421.6 449.2 424.8 448.1 428 448.6 435.2 447.8 437.1 448.8 438.4 448 439.9 448.9 440.7 447.9 445.1 448.7 446.8 446.7 451.1 448.5 453.7 447.5 454.1 446.7 452.1 442.9 451.4 442.1 450.7 440.6 451.7 441.5 454.8 441.5 456.8 438.7 457.8 439.3 452.2 434.7 447.9 434.1 448.1 431.5 451.6 431.7 452.8 430.3 453.4 427.9 451.4 423.5 452.1 423 448.7 422.1 448 421.9 445.9 420.2 444.5 419.3 444.8 417.9 448.3 414.8 448.9 413.2 445.9 411.1 447.2 409.3 445.6 407.6 445.8 406.1 448.3 407.2 450.7 406.3 451.6 403 452.1 402.8 453.1 400.5 454.4 397.6 451.8 396.5 451.7 394.4 454.2 391.6 454.4 391.2 451.4 387.6 449.9 386.2 451.4 383.1 451.4 378.9 452.9 377.5 453.9 374.4 454.4 374.2 455.7 375.6 457.9 372 461.1 369.6 459.2 367.8 459.6 366.6 458.1 363.9 459.4 364.5 461.7 366.9 463.5 366.3 465.7 365.7 464.2 363.2 467.5 362.5 470.7 363.1 470.9 362.3 475.8 361.1 476.3 359.2 475.5 358.5 477.7 357.3 477.5 359.6 483 361.8 486 362.9 484.3 363.8 485.3 362.3 490.4 361.3 491.5 356 492.4 354.5 494 352.3 493.6 352.8 494.8 350.7 496.6 351.5 497.9 353.4 497.1 354 499.9 355.9 499.2 357.4 502 358.9 502.7 359.7 505 360.2 503.7 361.9 504.4 364.6 503.5 365.6 502.2 367.7 502.3 368.5 503.8 368.6 506.6 367.9 509 367 509.8 367.2 511.4 366.3 513.4 361.6 516.9 360.3 519.2 358 520.4 358.1 523.2 355 520.9 351.5 521.7 349.8 524.2 343.3 526.7 341.5 526.5 338.4 527.1 336.6 528.4 334.4 527.8 332.5 524.5 331 523.1 328.4 524.6 325.8 524.4 325.8 527.5 327.3 530.4 325.3 529.6 322.5 526.4 321.3 526.7 319.7 524.8 318 525.3 316.1 524.5 316.5 523.6 313.8 524Z"/><path class="rg" d="M509.9 574.7 514.4 574.7 516.1 576.2 519.8 577.8 519.4 579.5 521.2 581.2 524.7 580.8 525.2 582.6 527 583.2 527.1 588.7 524 591 521.4 591.9 521.8 596 525.2 597.1 525.3 598.3 522 599.6 519.1 601.5 515.5 601.3 514.6 602.4 511.4 602.5 510.9 604.1 516.2 609.5 520.5 611.8 520.4 614.5 522.9 615.8 525.6 614.8 526.8 611.6 528.2 611.6 529.4 609.4 532.3 608.9 533.7 610.2 533.6 611.7 531.6 614.9 530.6 620 527.7 620.7 527.9 624.7 530.6 625.6 530.8 627.6 532.5 626.7 535 627.1 535.1 627.8 531.9 630.8 526.7 632.1 526.8 631.4 520.4 628.4 518.4 629.3 515.8 632.5 515.8 634.1 517.5 635 518.3 637.3 519.8 637 522.1 639.1 524.9 638.1 527.6 639.1 528.2 642.2 522.5 643.9 521 643 518 644.1 513.9 643 512.1 641.5 508.7 640.7 506.8 640.9 503.9 643.1 502.4 643.1 501.9 644.5 503.6 645.3 501.7 647.1 499.2 644.3 496.9 644.2 493.8 646.8 487.7 648.8 486.8 652.7 485 652.4 484.4 649.6 480 649 478.9 647.4 479.5 645 478.6 644.6 477 646.7 474.5 648 470.3 649.1 470 651.8 470.7 655.6 474.7 658.3 477.6 657.3 480.9 657.9 481.3 655.5 482.6 654.3 484.5 654.3 484.4 657.1 485.2 660.3 486.6 661.1 493.5 661.6 493.3 664.7 492 668.3 490.2 669.5 490.2 670.6 487.9 672.5 487 671.5 486.2 672.8 487.6 672.9 485.8 674.8 486.2 676.2 484.4 677.6 483.1 680.1 481.9 680.4 479.7 682.4 476.7 683 475.3 682.1 474.1 679.8 471.7 681.6 471.1 684.6 471.5 688.4 472.6 690.5 473.5 690.7 474.5 688.8 476.9 688.4 477.3 693 475.8 698 474.6 699.3 473.1 699.6 471.7 701.1 471.9 703.2 468.9 704.3 466.5 706.8 465.7 706.9 464.7 709.3 460.7 710.8 458.9 712 455.2 711 456.6 709.5 456.2 706 453.2 704.1 453.4 702.3 454.9 701.7 455.1 699.8 448.6 693.6 441.8 691.9 436.1 691.9 432.3 695 428.9 696.4 429.1 698.8 427.2 699.5 426.2 698 424.2 699.2 421.1 699.2 420.7 697.5 418.8 696.1 418.7 693.3 417.1 695 416.8 693.7 418 691.4 419.3 690.8 419.7 689 419.1 686.8 420.3 685.5 420.5 682.6 418.3 680.9 418.3 679.3 415.6 677.4 415.5 676.3 417.9 672.5 417.2 670.5 415.5 669.7 414.6 666.8 417.7 666.1 418 662.7 419.3 662.5 418.2 660.9 417.6 662 415.6 660.3 416.1 657.6 413.8 656.3 412 652.4 409.1 651.2 405.7 652.5 403.7 651.4 402.2 652.6 400.3 652.4 399 650.1 399.3 647.7 394.5 644.8 394.5 642.3 395.6 641.9 394.1 639.9 391.1 639.8 388.5 639 386.6 640.1 384.5 639.5 382.4 640.7 380.4 643.3 379.7 643.2 375.7 645.3 374.4 647.1 373.5 645.7 373.4 643.3 372.4 643.1 371.2 644.8 368.4 641.7 367.5 638.6 363.9 638.2 362.8 639.9 360.8 638.6 359.7 639.9 362.1 640.8 363.7 642.3 363.3 643.2 360.8 642.8 359.8 644.7 361.1 646 356.4 648.3 354.2 644.5 352.4 643.9 350.6 644.8 349.5 643.1 347.4 642.4 346.6 644.1 344.2 643.3 343.4 640.9 341.5 639.3 339.7 643.8 338.4 642.6 336 643.4 333.3 642 331.2 643.3 331.8 644.8 331.3 646.4 329.7 647.9 328.1 647.4 327.2 645 325.9 646.6 323.5 647.7 322.7 646.8 322.6 644.4 321.3 644.5 319.3 642.8 315.8 642.1 313.8 643.4 312.7 645.3 308 648.1 305.5 647.2 303.7 647.2 301.5 646.2 300.1 644.7 298.1 644.8 296.8 642.8 296.5 638.9 299.3 636.1 299 633.7 295.1 632.9 294.7 629.6 297 626.5 300.2 625.3 303.2 623.3 303.1 620.4 305.9 619.8 308.3 622 310 621.3 311 619 313.4 619.2 313.8 617 317 614.9 317.3 612.8 315.2 611.7 316.1 610.3 315.3 606.5 314.5 605.3 312.1 607.1 310.6 605.1 307 603.3 306 601.3 306 596.5 302.9 594.7 298.4 593.9 297.4 592.1 297.6 589.7 294.6 589.1 293.4 587.8 290.9 587.1 289.5 584.5 287.6 584.7 286.5 583.5 286.5 580.2 289 578.6 290.4 576.5 293.2 578.3 296.3 578.2 297.7 574.8 297.5 573.5 294.5 571.2 294.7 566.6 293.9 564.9 297.2 563.8 303.3 559.8 304.3 556.9 307.5 554.8 307.1 553.3 309.4 550.9 309.4 546.7 308.1 545.6 310.6 540.8 309.3 537.3 310.4 534.5 311.5 534.2 313 530.4 314.6 529.7 313.3 527.9 313.8 524 316.5 523.6 316.1 524.5 318 525.3 319.7 524.8 321.3 526.7 322.5 526.4 325.3 529.6 327.3 530.4 325.8 527.5 325.8 524.4 328.4 524.6 331 523.1 332.5 524.5 334.4 527.8 336.6 528.4 338.4 527.1 341.5 526.5 343.3 526.7 349.8 524.2 351.5 521.7 355 520.9 358.1 523.2 358 520.4 360.3 519.2 361.6 516.9 366.3 513.4 367.2 511.4 367 509.8 367.9 509 368.6 506.6 368.5 503.8 367.7 502.3 365.6 502.2 364.6 503.5 361.9 504.4 360.2 503.7 359.7 505 358.9 502.7 357.4 502 355.9 499.2 354 499.9 353.4 497.1 351.5 497.9 350.7 496.6 352.8 494.8 352.3 493.6 354.5 494 356 492.4 361.3 491.5 362.3 490.4 363.8 485.3 362.9 484.3 361.8 486 359.6 483 357.3 477.5 358.5 477.7 359.2 475.5 361.1 476.3 362.3 475.8 363.1 470.9 362.5 470.7 363.2 467.5 365.7 464.2 366.3 465.7 366.9 463.5 364.5 461.7 363.9 459.4 366.6 458.1 367.8 459.6 369.6 459.2 372 461.1 375.6 457.9 374.2 455.7 374.4 454.4 377.5 453.9 378.9 452.9 383.1 451.4 386.2 451.4 387.6 449.9 391.2 451.4 391.6 454.4 394.4 454.2 396.5 451.7 397.6 451.8 400.5 454.4 402.8 453.1 403 452.1 406.3 451.6 407.2 450.7 406.1 448.3 407.6 445.8 409.3 445.6 411.1 447.2 413.2 445.9 414.8 448.9 417.9 448.3 419.3 444.8 420.2 444.5 421.9 445.9 422.1 448 423 448.7 423.5 452.1 427.9 451.4 430.3 453.4 429.7 455.4 430.7 456 432.2 459.9 429.4 462 428.1 461.5 427.4 465.4 425.6 467.5 427.2 468.2 428.3 469.9 431.1 472 431.6 475.9 432.8 477.3 433.8 483.1 436.8 485.4 437.8 484.9 440.1 486.8 442.1 487.5 444.2 490.9 447.2 493.5 449.4 496.5 452.2 496 453 497 450.7 499.6 453.9 501.5 453 504.2 451 506.1 450.7 507.2 447.4 511.5 447.1 514.7 443.8 516.9 444 517.5 441.1 521.7 439.5 523.2 439.7 527.2 441 527.9 439.8 529.5 442 529.8 441.6 532.1 440.6 532.5 438.7 536.8 440.4 540.5 442.4 540.2 443.4 544.2 445 544.8 444.5 547.6 446 547.8 448.5 550.2 448.9 551.9 450.5 552.8 449.2 554.8 449.2 557.3 447.6 560.4 448.9 561.4 450.2 558.9 451.4 559.8 450.5 562 451.1 565.3 456.1 565.5 457.5 566.2 458.6 563.4 461.6 563.2 464.9 565 466.6 564.9 467.8 563.4 471.6 563.3 473.4 565.6 472.8 567.4 470.7 568.5 470.1 569.6 472.3 571.6 472.7 570.1 474.5 570.3 475.8 569.1 478.4 571.4 476.5 574 477.1 575.9 476.3 576.7 476.1 580.1 477.7 580.1 476.1 582.2 474.7 582.3 475.4 584 475.4 586.6 477.8 588.1 477.7 590.8 479.9 590.3 482 588.1 483.4 588.2 486 584.8 486.6 585 490.1 583.3 492.3 583.3 492 581.7 492.9 579.8 496.1 578.5 496.1 579.2 500.6 579 504.1 577.7 504.4 579.3 507.6 577.2 507.6 575.3 509.9 574.7ZM430.7 710.7 431.1 708.4 433.7 709.4 435.1 711.9 437.8 712.6 439.2 717.4 441 717.6 440 718.9 440 721 441.9 723.1 441.6 725.1 439.6 725.7 440.4 727.4 438.6 728.4 438.3 729.8 433.8 731.4 434.8 730.1 434.1 728.6 431.3 728 429.5 726.9 423.9 727.2 420.3 729.8 418.5 734 417.3 735.2 414.9 735.2 411.7 733.5 410.8 731.8 408.7 730.2 410.2 729.3 410.1 727.8 413.8 727.5 412.6 721.9 410.8 719.6 411.1 718 414.9 715.9 419.4 719.3 424.3 721.1 426.8 719.9 427 718.1 425.9 717 428.6 715.1 427.8 711.7 430.7 710.7ZM400.1 731.9 398 731.1 398.4 727.3 399.8 726.9 400.6 723.5 404.3 722.4 407.3 724.4 406.7 728.1 403.8 728.9 402.8 730.7 401.4 730.6 400.1 731.9ZM530.3 585.8 528.6 587.5 529.7 585 530.3 585.8ZM534.3 614.3 534.1 612.3 535.8 613.9 534.3 614.3Z"/><path class="rg" d="M369.5 728.7 375.8 730.2 376.2 731 375.3 737.5 374 739.4 375 740.3 377.5 739.9 380.2 740.2 381.7 742 382.6 744.6 382.7 747.4 384.8 748.1 385.8 749.6 385.6 752 387.8 755 387.8 757.6 387.1 759.1 385.4 759.8 382.5 759.7 382.1 762.8 380.8 764 373.9 764.8 372 765.9 370.8 767.8 367.8 769.7 364.5 770.1 361.5 773.9 361.3 778.4 359.7 780.3 357 781.8 352.4 786.1 349.8 789.3 348.7 792.9 349.2 796.4 349.1 799.5 346.2 804.8 342.8 806.1 338.5 806.1 335.7 809.8 332 813.3 328.9 816.8 328 818.8 326.4 824.5 325.6 825.7 321.3 828.1 311.5 827.5 309.3 827.7 306.1 829.8 303.8 834.7 302.7 841.5 304.3 845 304.1 846.4 300.6 850.4 298.6 853.9 296.1 860.6 294.2 862.7 292.3 862.8 288.7 860.8 284.7 860.1 280.3 862.3 277.6 862.2 275.3 867 275.5 868.4 276.9 869.2 277.4 872.4 276 873.9 271.5 874.4 269.5 876.5 269.7 880.6 271 882.1 271 884.6 269.4 886.5 267.3 887.3 264.9 887 257.3 890.5 253.9 890 246.5 891.4 243.9 891.1 242.6 889.5 242 887.2 238.7 888.2 225.5 889 225.4 876.3 224.3 875 222.2 875.3 219.8 874.3 217.8 871.8 215.4 872.2 214 873.2 212.4 869.6 208 869 205.4 864.8 204.2 865.2 201.9 863.4 202.1 861.5 201.3 858.6 201.6 856.2 201 852.1 200.1 851.2 198.7 846.4 196.4 844.3 196.1 842.1 197.5 840.7 196.8 837.1 195 834 192.2 832.8 190.4 832.9 189.9 834 186.6 832.9 186.3 831.6 188.9 830.9 189.5 828.6 188.4 826.7 186.1 825.6 186.1 823 185.4 821.9 188.5 820.6 189.6 818 190.1 814.6 188.5 811.8 188.8 808.7 189.8 807.6 187.9 805.6 186.3 806.6 185.3 805.9 185.4 803.2 183 800.4 184.4 799.9 185 796.7 182.4 796.8 181.2 794.7 180.6 788.5 182 783.2 184.1 781.7 187.1 778.3 188.4 778.2 189.4 776.6 191.4 775.5 192.7 773.5 191.5 771.4 189 769.6 188.2 769.9 185.6 766.4 181.9 765.9 182.7 762.1 182.1 760.6 182.5 754 181.1 753.4 179.2 753.9 178.6 753.1 178.4 748.5 179.4 746.9 177.7 745.2 177.5 743 175.5 741.3 175.6 739.6 176.8 737.8 176.7 735.8 180.9 735.4 182 734 183.6 726.1 182.2 721.5 180.7 719.3 179.1 715.2 178.1 710.5 179.9 708.4 181.1 710.9 182.1 709.3 181.6 707 184.2 705 189.7 705.1 192.4 705.8 194 705.1 196.6 701.2 197.2 694.3 195.5 691.7 196.3 689.2 199.3 689.8 200.3 688.4 200.9 684.7 198.6 681.6 199.6 677.7 197.5 677.1 196.1 674.2 197 668.5 196.9 662.2 197.7 661 201.8 658.5 201.9 655 202.5 652.8 204.6 653.1 205.1 655.8 204.9 659.9 206.6 660.8 210.2 659.2 216.1 660.1 217.3 659.1 219 654.8 221.5 652.4 222 644.9 226.3 641.3 226.1 638.4 224.7 637.8 224 633.7 228.4 634.6 229.9 637 231.2 636.8 232.9 634.2 232.9 632.8 234.4 628.4 232.5 628.3 232.8 626.8 238.1 624.7 240.1 622.1 241.2 621.6 242.4 622.8 241.6 625.1 243.6 624.4 244.6 625.8 246.5 625.8 250.4 623.8 253.9 625.1 255.3 624.8 257.6 622.7 259.2 623.4 264.5 623.9 268 627.3 274.4 627.7 276 626.9 276.4 625.2 275.5 616.7 275.8 615.4 277.8 612.1 279 602.9 277.6 599.4 274.1 597.3 273.6 595.9 274.4 594.7 274.5 589 276.4 588.9 276.7 587.2 279.8 586.9 282.1 585.1 283 582.2 285.2 583.9 284.8 580.3 286.5 580.2 286.5 583.5 287.6 584.7 289.5 584.5 290.9 587.1 293.4 587.8 294.6 589.1 297.6 589.7 297.4 592.1 298.4 593.9 302.9 594.7 306 596.5 306 601.3 307 603.3 310.6 605.1 312.1 607.1 314.5 605.3 315.3 606.5 316.1 610.3 315.2 611.7 317.3 612.8 317 614.9 313.8 617 313.4 619.2 311 619 310 621.3 308.3 622 305.9 619.8 303.1 620.4 303.2 623.3 300.2 625.3 297 626.5 294.7 629.6 295.1 632.9 299 633.7 299.3 636.1 296.5 638.9 296.8 642.8 298.1 644.8 300.1 644.7 301.5 646.2 303.7 647.2 305.5 647.2 308 648.1 312.7 645.3 313.8 643.4 315.8 642.1 319.3 642.8 321.3 644.5 322.6 644.4 322.7 646.8 323.5 647.7 325.9 646.6 327.2 645 328.1 647.4 329.7 647.9 331.3 646.4 331.8 644.8 331.2 643.3 333.3 642 336 643.4 338.4 642.6 339.7 643.8 341.5 639.3 343.4 640.9 344.2 643.3 346.6 644.1 348.6 645.2 351.2 648.9 353.9 648.8 355 649.5 354.4 652.8 354.8 659.5 353.7 663.7 352.5 664.3 351.4 668 352.6 673.8 353.8 674.4 355.5 681.4 354.2 682.3 353.7 685.5 349.6 688.6 347.9 692 343.2 692.5 343.3 695.1 342.1 696.5 346.7 700.6 345.9 703 346.7 704.7 346.5 707.1 349.7 708.4 350.8 710.9 354.3 713.2 354.9 717.1 354 721 355.2 723.9 357.1 725.6 358.8 725.8 360 727.8 362.2 728.6 366.1 728.3 369.5 728.7ZM308.1 847.3 309.2 847.4 309.6 849.1 308.1 847.3ZM312.7 849.5 312.2 848.3 314.9 848.9 313.8 850.1 312.7 849.5ZM386.7 747.4 385.9 743.5 387.6 744.9 386.7 747.4ZM305.7 846.2 306 843.8 306.9 846.6 305.7 846.2Z"/><path class="rg" d="M573.7 166.8 573.3 168.7 573.9 171.1 575.7 173.1 575.9 174.6 574.7 176.4 572.3 177.2 572.5 180.3 571.2 180.9 570.4 183.2 571 185.6 569.3 185.5 568.1 187.1 566.2 187.2 565 189.9 564.7 194.1 565.2 196.3 564.1 196.7 566 198.2 568.9 201.5 570.9 200.9 575.3 205.8 573.9 208.6 572.6 207.2 571.2 207.8 569.1 205.9 569.1 203.6 564.4 202.1 563.5 206.4 559.6 208.2 559.6 212.4 559.1 213.9 561.3 213.8 561.9 215.3 560.9 220.6 564.1 221.9 564.1 224 562.5 225.1 560.8 223.8 556.7 225.4 556.6 228.3 553.8 229.1 551.1 229.2 552.2 232.3 552.5 235 549.8 235.6 549.9 234.6 547.7 231.7 545.4 230 545.3 227.3 542.6 226.6 539.6 227.2 537.4 225.6 536.8 226.4 533.3 226.3 531.9 227.5 529.8 227.3 528.1 225.4 529.5 222.7 528.2 221.8 527.5 215.8 523.6 214 520.1 213.4 519 212.7 517.8 213.9 518.5 215.6 519.5 215.2 518.1 218.4 518.6 219.7 520.8 219.1 520.6 221.7 522.3 221.7 522.5 223.6 520.6 225.9 518.1 224.3 516.8 224.5 515.5 227.4 513.2 228.6 512.5 232 509.4 235.4 508.4 238.9 506.1 241.4 503.9 241.1 503 243 503.5 245.4 502.3 247.7 500.1 249 496.6 250 494.7 252 494.6 254.3 493 255.4 487 255 485 253.7 481.1 256 479.1 254.8 478.5 252.9 476 252.4 474.3 255.4 478 259 479.6 263.1 478.8 266.5 477.8 267.6 478.4 269.5 477.5 270.9 474.5 271.8 472.9 271.2 470.8 271.6 470.5 272.7 467.6 273.2 466.6 275.5 469.2 279.5 468.6 284 466.5 285.3 466.3 288.4 464.5 292.2 464.5 294.9 463.1 296.6 462.7 300.2 460.2 299.9 459.1 301.5 459.2 303 457.6 304.8 458.6 306.4 460.5 306.4 462.1 307.5 462.4 309.2 461.5 310.4 461.3 313.3 460 315.2 459.7 317.9 460.4 319.4 459 326.9 460.7 329.2 463 329.6 465.5 329 464.8 331.6 464.8 334.7 463.2 338 463.7 341.1 462.6 343.3 460.2 343.8 456.7 345.7 455 349.5 456.6 351.4 456.6 352.5 453.8 355.4 454 359.4 455.9 360.3 456.1 364 459.6 363.1 461.3 365.2 461 367 461.9 367 463.9 364.9 466.3 364.2 467.2 365.4 469.1 366.2 472.7 368.6 472.9 371.1 471 372.9 473.4 377.7 473.5 381.2 474.6 385.6 473.8 387.1 471.7 383.5 469.3 383.3 468 381.8 467.4 378.7 464.8 378.7 463.6 375.8 462.2 375.7 460.7 373.5 461 372.1 455.8 371.8 456.2 369.8 454.8 368.7 452.6 368.6 451.9 369.6 449.9 369.8 448.5 366.8 445.6 364.4 444.6 364.5 440.1 368 437.7 369.3 437.1 367.3 434.8 366.1 433.3 363.5 433.1 361.6 434.8 359.2 436.8 361.1 437.8 360.3 437.6 357.2 435.9 358.8 432 358.2 430.1 358.9 427.5 358.9 423.8 356 422.3 357.7 420.2 356.9 419.3 354.8 418.8 356.1 416.5 356.4 415.6 354.2 417.3 353 417.4 350.7 415.7 352.2 413.6 352 412.9 350.7 411.3 351.9 411.8 354.1 410 355.1 408.3 353.6 406.7 353.6 405 356 405.5 357.9 404.1 358.9 401.8 358.6 402.3 357.2 399.1 356 397.5 357 397.7 358.8 395.4 360.5 393.2 361.3 391.8 359.9 389.5 360.2 389.5 361.6 387.2 361.7 384.2 364.2 383.4 362 380.5 361.7 380.4 358.9 376.7 358.6 376 356.6 376.4 354.9 375.2 353.3 372.6 352.7 371.3 350.4 372.3 347.8 371 346.4 371 344.8 368.9 344.1 367.6 345.7 366.3 343.2 367.8 341.3 367 339.6 368.8 338 367.7 336.8 364.8 337.6 361.9 337 362.4 333.6 360.1 331.6 360.4 329.5 363.2 326.1 360.4 324.6 357.7 324.4 358.3 326.4 357.4 327.4 356.3 326.4 352.9 327.2 351.2 325.3 348.3 328 344.7 327.1 344.4 325.8 341.8 327.1 340.8 328.4 339.8 323.9 338.1 323.7 338.7 320.9 337.1 320.1 336.6 316.6 339.2 316.2 339.5 314.5 336.9 312.9 337.5 310.3 335.7 309.2 337.5 306.4 336.7 305.5 334.3 306.1 332.1 307.8 330.8 307 330 307.8 328.2 307.1 326.3 308 324.1 307.9 322.4 310 320.8 309 318.3 309.4 315.4 308.5 311.1 310.5 310.1 312.7 308 312.2 307.2 313.5 305.3 313.9 304.5 311.7 305.6 309.7 301.5 309.9 300.8 306.4 294.7 304.2 294.9 302 292.9 301.1 294.1 300 296 296.5 298 296.8 299 295 301.7 293.9 302.9 291.6 303.4 289 306 286 305.1 284.6 305.9 282.1 302.8 279.3 301.1 276.2 299.8 275.3 299.1 272 297.3 269.5 296.1 269.4 294.3 267 292.2 265.6 290.4 259.9 287.6 259.9 285.8 258.6 284.6 260 281.3 259.5 279.6 260.6 278 259.3 277.8 256.1 278.5 254.5 282.5 253 283 248.7 284.9 246.9 282.9 246.4 282.1 244.8 281.1 245.2 279.2 243.9 274.7 243.9 274.6 241.3 273.5 243 271.3 243.6 270.1 244.9 269 244.6 268.8 242 267.8 241.3 268.3 240 267.9 237.6 266.4 236.8 264.7 237.3 266.8 234.6 266.9 233.4 261.3 235.7 259.5 232.9 257.4 232.6 257.5 226.9 254.5 226.5 251.5 227.5 248.4 225.5 247.7 224.3 243.8 223.1 241.2 221.4 239.5 221.9 238.9 224.2 241.5 224.6 241.7 226.6 240.2 228.6 241 231.3 240.4 234.7 239.5 234.7 236.9 236.8 235.9 239 234.1 239.3 233.8 237.8 230.9 236.2 226.7 234.5 225.1 232.2 223.3 228.1 220.1 224.9 218.1 225.4 216.5 227 213.6 228.1 210.2 225.5 209.2 225.5 207.6 227.9 205.3 227.3 203.8 225 201.9 226.6 200.3 219.4 201.2 217 202.5 216.2 204.6 212.7 207.2 211.3 209.3 207.1 210.9 207.4 212.6 206.7 213.3 205.1 216.6 202.2 218.2 200.4 219 196.7 220.9 195.6 221.9 191.2 219.9 190.2 219.4 189.1 216.1 188.8 217 186.4 216.6 185.1 214.8 185.2 211.4 184.4 209.9 182.1 210.5 176.9 209.7 174.6 210.8 174 211.1 171.9 214.4 169.4 215.3 166.5 214.2 164.2 214.1 161 211.5 159.7 211.8 156.7 210.6 154.8 211.6 152.9 210.3 150 210.3 145.8 209.6 143.7 208.3 143.1 207.3 140 205.4 140.8 202.2 144 201.5 142.7 200.1 143.1 196.4 141.3 195.8 140.1 197.1 134.7 195.3 132 195.8 131.1 193.6 128.4 194.5 126.9 195.3 127.6 196.6 125.2 196.4 123.3 199.8 120.1 203.3 120.3 206.2 123.7 206.2 125.4 208.8 128.1 211.4 127.3 210.8 125.3 211.8 124.8 210.2 121.5 209.2 120.6 210.9 117.1 213.4 115.6 215.1 116.9 217 116.6 222 118.6 224.3 117.8 227.1 117.6 227.3 112.4 231.3 110.9 234 111.2 235.8 109.1 237.5 109.1 238.1 107 240.1 105.2 239.7 101.9 242.6 102.6 244.4 100.4 244.5 99.2 243.1 96.1 244 90.2 242.4 87.7 239.5 86.8 240.2 82.5 241.6 83 244 82.3 246.5 78.2 248.1 78.2 249.6 81.2 249 84.2 250.3 85.3 252.5 84.9 252.5 83.7 254.7 80.4 256.7 79.2 257.7 79.7 259.6 78.4 261.1 78.4 265.3 74.7 269.4 69.6 270.9 69.4 272.9 71.4 274.2 69.7 277.9 67 279.1 63.2 280.8 61.7 282.3 61.8 282.6 63.3 286.9 65 287.9 66.5 287.3 68.3 288.9 70.5 290.5 68.6 291.7 69.2 291.4 70.6 292.1 73.7 291.6 76.1 293.2 77.2 294.6 79.7 294.4 82.8 295.7 84 302.4 86.2 305.2 87.9 306.3 90.5 307.9 91.4 311.7 89.7 313.6 92.8 316 95.2 317.9 95.6 319.9 93.6 320.8 90.8 323.5 89 325.6 85.4 324.7 83.5 325.7 80.3 325.2 78.5 327.5 76.9 330.2 73.3 333.7 71.9 335.9 70.3 337 68.5 338.8 70 342.9 68 346.5 67.7 347.9 65.2 349.9 64.6 351.7 63.2 354.2 64.2 355.4 65.4 358.9 63.7 361 60.1 362.4 62.1 364.5 61.9 367.1 60.6 368.5 62.1 371.5 61.6 373.2 62.6 373.8 64.5 376.4 65 377.6 64.5 376.8 61.9 377.1 58 379.1 55.2 382.1 56.1 383 55.2 381.6 50.6 384 48.4 387.2 46.8 392 48.7 394.9 49 396.7 47.7 399.2 47.3 402.1 44.3 404 45.5 407.6 42.9 410.4 42.9 413.1 41.7 418.4 41.9 418.8 42.5 421.2 41.2 421.8 37.5 421.3 35.2 423.3 34.2 422.2 32.1 422 29.2 425.1 27.2 424.3 25.9 424.3 23.2 421.2 22.3 418.5 22.1 417.5 19.7 415 18.3 414.3 16.7 418.4 14.3 419.1 14.5 420.3 11.6 422.6 10.9 424.1 8.6 426.7 8.5 432.7 3.8 434.2 3.5 433.7 6.1 435.1 9.5 436.8 9.5 436.2 11.5 438.7 12.7 442.2 12.4 443.9 13.8 445.9 12.2 444.2 9.2 444.7 7.3 446.4 6 447.8 7.9 450.5 7.8 453.2 6.9 453.4 4.8 455.3 5.6 457 5 459.7 5.2 461.8 7.5 461.5 10.3 466.1 10.4 467.8 9.4 469 7.2 470.9 6.5 473.5 7.9 474.9 7.6 477.4 3.9 479 0.4 482.4 0 484.2 2.8 483.7 5.8 485.7 6.5 486 8.3 488.3 11 492.8 12.9 496.3 13.4 498 16.2 496.6 19.5 495 19.9 492.9 22.2 490.8 23.6 489.4 27.1 491.7 27 493.1 26.1 495.6 26.8 496.9 29.8 496 33.4 496.3 36.4 493.5 38.4 491.5 38.2 490.1 39.1 489.8 40.7 486.4 41.8 485 44.4 482.3 46.5 482.5 49.9 484.6 51.7 484.7 53.5 483.6 55.7 483.6 58.3 484.6 60.1 484.1 63.5 488.1 68.1 488.2 69.1 490.4 69.3 496.7 72 496.5 73.7 499 74 499.4 78 501.2 79.7 500.4 81.8 501.9 83.4 500.4 87.1 501.9 88.7 502.5 92 503.9 93.5 504.6 96.6 502.6 98 502.7 99.7 505 100.6 507.8 107.7 509.5 108.7 511.1 111 512.4 111 512.8 113.6 509.1 113.6 508.6 114.4 509.5 116.5 508.5 117.8 509.4 120.5 511.8 122.6 513.4 126 513.2 128.8 515.1 129.7 514.1 131.3 513.9 134.1 513.2 134.8 513.4 137.8 514.5 138.8 512.1 140.2 510.9 143.1 507.6 144.5 506 146.8 505.7 148.8 508.3 148.6 509.4 152 511.1 153.1 510.7 155 512.4 155.9 513 158.6 514.6 159.3 518.4 158.8 521 160.1 522.1 161.4 523.9 157 527.6 156.2 528 154.1 526.7 152.7 528 151.3 529.4 152.7 533.1 152.4 535.8 155.6 538.9 156.2 540.6 158.2 541.8 157.2 544.7 158.5 549 155.2 551.6 157.1 551.7 158.9 549.6 159.2 550.8 160.9 550 163.5 551.2 164.7 552.9 164.2 554.4 166 555.5 165.3 557.9 166 559.9 165.4 562.4 167.2 564.8 166.5 567.1 167.5 570.6 167 571.2 165.2 571.5 167.2 573.7 166.8Z"/><path class="rg" d="M92 426.5 95.3 428.7 98.6 429.7 103.2 430.2 104.5 430.9 105.5 432.9 105.7 437.4 108.1 439 115.3 433.3 117.8 434.5 122.6 436.2 124.6 434.3 127.6 435.6 129.9 434 130.6 430.1 134.6 432.8 133.2 436.4 133.2 438.5 134.2 440 134 443.4 136.9 444.1 138.1 445.6 139.7 445.8 140.7 447.8 143.8 448.3 145.8 450.2 148.8 451.5 149.8 453.3 150.6 460 151.9 461.1 155.8 459 158.3 459.6 156.1 464.1 155.7 466.6 156.5 467.9 162.7 473.1 165.7 472.5 170.3 470.7 172 466.7 173.7 465.6 174.9 463.2 176.9 460.8 178.9 459.9 181.8 459.8 185 462.2 188.1 461.4 190.7 459.9 194.4 459.3 197 460.2 199.1 468 202.5 472.7 202.6 476.3 203.8 478.1 202.8 480 203.9 482 201.1 484 202.2 485.9 203.2 484.9 204.5 487.2 204.4 490.2 202.7 491.5 205.1 491.8 206.5 494.8 205.1 494.8 206.7 497.7 210.6 496.8 215.3 498.2 216.6 499.6 216.9 501.8 219.7 505.1 221.3 508.2 220.9 513 223.8 512.2 226.2 515.2 228.7 513.1 226.4 513.1 228.3 509.6 229.3 509.2 230.1 506.9 232.4 504.1 233 501.2 235.7 499.5 240.7 495.4 241.1 493 239.2 491.2 235.9 492 234.8 491.2 237.7 486 237.9 484.2 240.9 481.8 244.6 481.2 249.1 478.9 251.2 478.3 251.6 473.8 252.6 472.8 256.2 473.4 257.4 478.9 256.4 479.9 257.4 483.8 258.8 484.9 258.9 482.2 259.7 482.5 260.6 490.6 258.6 494.9 259 496.6 261.4 496.5 266.3 495.3 267.2 494.5 269.9 486.5 272.1 485.1 272.5 483.7 270.3 482.9 270.7 482.1 275.1 481.5 275.4 482.7 277.6 482.2 276.1 484.6 276.7 487.2 278.3 488.3 280.3 485.6 283.2 484.1 284.2 484.6 285.4 488 287.2 489.2 290.7 489.9 293 493.7 291.9 495.1 294.2 498.3 295.9 498.1 299.9 495.1 301.7 494.3 304.4 495.5 306.8 500.4 310.1 503.1 313.9 509.3 318.9 508.2 318.4 513.1 315.1 517.3 311.7 515.1 310.4 515.8 308.9 519.7 308.8 522.8 309.4 524.3 311.2 523 313.8 524 313.3 527.9 314.6 529.7 313 530.4 311.5 534.2 310.4 534.5 309.3 537.3 310.6 540.8 308.1 545.6 309.4 546.7 309.4 550.9 307.1 553.3 307.5 554.8 304.3 556.9 303.3 559.8 297.2 563.8 293.9 564.9 294.7 566.6 294.5 571.2 297.5 573.5 297.7 574.8 296.3 578.2 293.2 578.3 290.4 576.5 289 578.6 286.5 580.2 284.8 580.3 285.2 583.9 283 582.2 282.1 585.1 279.8 586.9 276.7 587.2 276.4 588.9 274.5 589 274.4 594.7 273.6 595.9 274.1 597.3 277.6 599.4 279 602.9 277.8 612.1 275.8 615.4 275.5 616.7 276.4 625.2 276 626.9 274.4 627.7 268 627.3 264.5 623.9 259.2 623.4 257.6 622.7 255.3 624.8 253.9 625.1 250.4 623.8 246.5 625.8 244.6 625.8 243.6 624.4 241.6 625.1 242.4 622.8 241.2 621.6 240.1 622.1 238.1 624.7 232.8 626.8 232.5 628.3 234.4 628.4 232.9 632.8 232.9 634.2 231.2 636.8 229.9 637 228.4 634.6 224 633.7 224.7 637.8 226.1 638.4 226.3 641.3 222 644.9 221.5 652.4 219 654.8 217.3 659.1 216.1 660.1 210.2 659.2 206.6 660.8 204.9 659.9 205.1 655.8 204.6 653.1 202.5 652.8 201.9 655 201.8 658.5 197.7 661 196.9 662.2 197 668.5 196.1 674.2 197.5 677.1 199.6 677.7 198.6 681.6 200.9 684.7 200.3 688.4 199.3 689.8 196.3 689.2 195.5 691.7 197.2 694.3 196.6 701.2 194 705.1 192.4 705.8 189.7 705.1 184.2 705 181.6 707 182.1 709.3 181.1 710.9 179.9 708.4 178.1 710.5 179.1 715.2 180.7 719.3 182.2 721.5 183.6 726.1 182 734 180.9 735.4 176.7 735.8 176.8 737.8 173.7 732.8 171.7 733.8 171 730.8 170 730.3 168.7 727.6 167.4 727.1 165.9 724.1 166.3 722.1 168 722.2 169.5 720.5 167.6 717.3 165 714.1 161.4 716.4 162.2 715.2 158.8 713 157.3 711.2 155.9 708.2 156.1 707.1 154.7 706.9 152.3 704.7 151.9 703.1 153.9 701.4 152.8 697.9 156.2 694.1 157.2 691.9 159.1 690.2 159.1 687.7 161.3 686.3 161.9 684.5 159.5 680 155.5 679.8 151.6 684.5 149.5 682.2 143.7 682.5 142.6 684.3 140.8 683.5 136.9 683.7 131.6 685.8 131.2 687 129.7 686.9 125.1 684.6 123.4 687.8 121.1 689 120.7 690.6 117.8 692.2 113.2 693.8 110 690.7 111.8 684.9 109.7 682.1 109.1 676.3 106.6 672.5 103.7 672.4 101.4 673.4 99.8 673.3 98.3 669.7 94.9 667.9 94.6 665.4 95.2 663.4 93.2 661.4 91.9 658.4 89.4 658.9 88 656.6 88.2 653.3 95 649.6 93.2 647.3 91 646.6 91.1 642.7 88.5 642.7 87.7 644.4 85.6 644.2 83.5 646.6 83.4 650.4 82.6 652.1 80.7 653.2 80.6 652.3 78.2 653.9 75.2 656.7 73.7 657.2 69.3 657.3 67 658.5 63.9 657.1 64 656.1 66.8 652 64.9 651.6 63.3 652.4 61.9 651.5 61.8 649.3 60.2 647.1 58.5 646.4 56.9 642.8 55.2 643.2 50.5 648.5 48.2 648.9 44.2 647.6 40.6 648 40 650.1 38.7 647.2 36.3 647.9 35.2 646 33.5 645.7 31.9 643.9 31.1 641 28.6 638.1 27.2 637.5 25.2 639.2 22.1 638.5 20.8 635.6 18.4 636.1 17.2 635.1 9.3 634.2 7.4 631.6 6.6 631.6 5.2 629 2.8 627.4 3.2 625.1 5 624.2 6.5 625.4 7 626.9 8.6 626.5 10.7 627.7 12.1 627.2 10.7 624.6 7.7 621.4 4.8 620.8 4 619.2 3.4 616.1 5.9 615.5 7.5 612.9 9.9 611.8 10.9 612.6 12.6 610.4 11.4 608.4 10.2 608.5 11.1 606.3 9.2 604 4.5 602.6 5.1 600.5 3.5 598.4 3.5 597 5.9 595.7 5.3 593.3 3.8 591.3 2.4 591.9 0.3 591.2 0 589.2 1.2 588.8 0 586.8 0.7 586.5 0.4 580.6 2.9 578.4 4.3 579.7 6.3 579.1 8.1 576.5 10.9 576.7 13.1 575.7 14.5 572.3 16.2 570 15.8 565.9 16.5 565 18.9 566.1 20.4 565.6 20.9 564 22.4 565.4 24.7 563.4 26 559.7 24.8 559 25.6 557.9 24.7 555.6 23.3 555.2 24.7 552.9 23.5 550.4 24 548.8 26 546.3 25.1 543.4 25.6 542.3 27.2 542.3 28.3 541.1 28.4 537.9 26.7 534.6 27.9 531.1 25.9 531.2 25.6 528 26.9 526.6 27.3 524.7 30.8 523.5 30.6 518.7 31.5 517.3 33.8 517.5 35.3 514.4 33.8 511.6 33.4 507.8 31.6 506.2 32.6 504.4 31.7 502.6 33.3 502.4 34.7 500.2 36 501.1 36.3 498.9 34.4 496.3 35.7 493.3 34.1 492.1 34.8 489.8 36.1 490.4 36.1 488.1 38.6 489.5 42.7 488.6 43.2 487.4 42.9 484.5 44.6 482.7 44.3 481.5 46.5 477.8 49.2 477.7 52.7 476.5 52.6 479.8 54.2 479.6 54.5 476 55.2 474.5 54.3 472.9 51.6 470.3 51.5 468.3 46.9 465.6 46.4 462.9 46.7 459.1 50.5 455.7 53.3 455.7 54.6 452.5 57 451.2 59.6 451.1 62.6 449.8 63.8 451.3 68.1 450.8 69.8 448.7 71.9 448.7 75.6 447.2 75.9 445.9 78.6 443.8 79.6 440.8 83.3 439.9 86.9 439.5 86.6 437.4 85.3 434.3 85.4 432.5 87.1 431.7 89.2 427.2 92 426.5Z"/><path class="rg" d="M664.2 330.3 663.3 328.5 661.3 326.6 658.1 324.7 654.7 324.9 654.8 326.3 652.2 328 647.3 326.2 644.4 328 643.2 332.1 641.6 332.4 640.6 334.2 637 333.8 634.4 335.2 632.3 334 631.4 332.4 629.8 331.5 628.1 332.1 624.8 330.4 623.4 330.7 623.2 328.9 619.6 327.7 617.8 325.3 618.9 324.5 614.9 319 613.8 316.4 609.3 314.5 608.1 315.3 605.2 314.7 601 315.8 598.3 314 597.2 315.1 599.4 316 598 317.1 594.9 316.1 593.6 316.4 593.5 318.2 592.1 320.1 590.3 320.6 588.7 319.8 587.5 320.8 588.2 322.2 586 323.2 585.5 324.3 582.6 325 583.5 323.2 582.8 322 579.9 322 577.6 325.9 576.6 332.5 572.3 330 571.1 333 568.1 334.6 565.8 332.2 565.8 330.5 564 327.2 562.6 326.2 560.3 328.9 557.7 329.9 556.4 331.4 554.6 330.9 553.4 332 552.3 331.2 549.1 331.8 548.5 329.6 546.7 328 546.5 325.1 544.8 326.8 541.7 326.5 540.2 325.8 540.6 324.3 542.5 323 542.1 321.8 539.3 319.7 538.2 320.9 534.4 320.7 534 322.7 532.2 322.3 531.9 325.4 530.6 328.7 528.5 329.1 529.9 330.6 528.8 333.7 526.9 332.8 524.2 333 521.8 334.3 520.9 337.1 519.6 338.5 519.5 340.3 521.3 340.7 521.9 342.3 521.2 344.8 519.2 345.5 517.2 343.3 513.9 343.2 508.1 345.4 507.5 347.3 506.1 347.8 505.1 350.4 500.6 352.9 500.2 351.7 498.8 351.1 497.7 351.8 497.8 348.8 495.5 346.5 496.7 345 496.8 342.4 495.4 341 493.2 340.4 493 338.1 489.6 337 487.2 337.1 487 338.7 488.3 341.9 485.1 344.6 485.1 348.8 484.3 350.6 489.6 353.9 488.1 358.1 490.2 359.2 492.5 362.8 495.7 365.2 494.9 369 491.5 371.2 488.1 370.1 487.8 369.3 482.6 369 481 371.5 477.7 374.5 477.5 376.9 478.5 378.1 476 378.1 476.3 379 473.5 381.2 473.4 377.7 471 372.9 472.9 371.1 472.7 368.6 469.1 366.2 467.2 365.4 466.3 364.2 463.9 364.9 461.9 367 461 367 461.3 365.2 459.6 363.1 456.1 364 455.9 360.3 454 359.4 453.8 355.4 456.6 352.5 456.6 351.4 455 349.5 456.7 345.7 460.2 343.8 462.6 343.3 463.7 341.1 463.2 338 464.8 334.7 464.8 331.6 465.5 329 463 329.6 460.7 329.2 459 326.9 460.4 319.4 459.7 317.9 460 315.2 461.3 313.3 461.5 310.4 462.4 309.2 462.1 307.5 460.5 306.4 458.6 306.4 457.6 304.8 459.2 303 459.1 301.5 460.2 299.9 462.7 300.2 463.1 296.6 464.5 294.9 464.5 292.2 466.3 288.4 466.5 285.3 468.6 284 469.2 279.5 466.6 275.5 467.6 273.2 470.5 272.7 470.8 271.6 472.9 271.2 474.5 271.8 477.5 270.9 478.4 269.5 477.8 267.6 478.8 266.5 479.6 263.1 478 259 474.3 255.4 476 252.4 478.5 252.9 479.1 254.8 481.1 256 485 253.7 487 255 493 255.4 494.6 254.3 494.7 252 496.6 250 500.1 249 502.3 247.7 503.5 245.4 503 243 503.9 241.1 506.1 241.4 508.4 238.9 509.4 235.4 512.5 232 513.2 228.6 515.5 227.4 516.8 224.5 518.1 224.3 520.6 225.9 522.5 223.6 522.3 221.7 520.6 221.7 520.8 219.1 518.6 219.7 518.1 218.4 519.5 215.2 518.5 215.6 517.8 213.9 519 212.7 520.1 213.4 523.6 214 527.5 215.8 528.2 221.8 529.5 222.7 528.1 225.4 529.8 227.3 531.9 227.5 533.3 226.3 536.8 226.4 537.4 225.6 539.6 227.2 542.6 226.6 545.3 227.3 545.4 230 547.7 231.7 549.9 234.6 549.8 235.6 552.5 235 552.2 232.3 551.1 229.2 553.8 229.1 556.6 228.3 556.7 225.4 560.8 223.8 562.5 225.1 564.1 224 564.1 221.9 560.9 220.6 561.9 215.3 561.3 213.8 559.1 213.9 559.6 212.4 559.6 208.2 563.5 206.4 564.4 202.1 569.1 203.6 569.1 205.9 571.2 207.8 572.6 207.2 573.9 208.6 575.3 205.8 570.9 200.9 568.9 201.5 566 198.2 564.1 196.7 565.2 196.3 564.7 194.1 565 189.9 566.2 187.2 568.1 187.1 569.3 185.5 571 185.6 570.4 183.2 571.2 180.9 572.5 180.3 572.3 177.2 574.7 176.4 575.9 174.6 575.7 173.1 573.9 171.1 573.3 168.7 573.7 166.8 574.7 166.7 576.1 164 577.6 159.9 585.9 155.7 588.1 153.3 587.1 150.7 590.2 147.4 593 145.4 596.1 144.6 599.7 144.6 601.4 146.2 602.4 149.5 603.4 150.3 605.6 149.4 608.1 147 609.5 144.6 609.9 141.9 611.2 138.8 610.7 135.9 611.8 133.5 613.9 131.7 613.4 128.4 613.9 123.9 615.7 123.3 617.2 123.9 618.1 122 620 122.2 620.8 121.3 620.3 119.2 622 120.1 622.2 121.3 624.9 121.3 627 120.2 627.9 121.1 629.7 120.7 631.6 119.3 636.5 120.4 638 121.4 637.2 123.4 638.6 125.7 637.5 128.5 635 129.4 635.8 136.5 638.2 137.3 643.2 138.1 642.7 141.4 642.2 141.4 640.6 144.5 641.9 145.7 644.5 145.1 644.8 144.3 648.8 149.3 647.9 152.1 649.1 152.7 648.5 155.1 649.1 159 648.1 159.7 648 161.8 646.4 163.4 644.9 163.5 645.6 164.9 648.2 166.1 649 169.8 651.6 170.4 652.9 172.6 654.1 173.2 654.4 175.3 655.9 175.7 654.2 177.8 655.3 178.1 655.9 180 659 180.9 658.9 182.7 661.1 183.7 661.7 185 659.1 185 659.3 188.3 662.6 188.9 663.5 187.4 665.9 188.6 667.5 190.1 668 189.1 671 189.6 671.8 188.2 670.1 187.1 672 184.9 673.8 186.6 676.2 186.5 675.3 188.2 677.4 189.1 677.5 187.6 679 186.9 680.9 187.2 681.6 186.1 686.7 186.3 688.5 186.8 687.6 184.9 689.7 180.6 691.2 179.7 691.8 178.1 691.2 177 695.9 176 696.9 174.6 698.8 175 699.5 177.4 700.6 177.3 702.4 179.9 702.5 181.5 706.7 182.2 708.2 180.5 710.9 176.4 714.2 174.5 714.1 172.5 715.9 171.5 718.4 171.2 719.6 172.3 721 170.2 719.9 168.2 720.5 167 725.8 166 727.7 166.9 731.9 165.4 733.8 166.9 735.2 166.9 739.4 164.2 739.8 163.2 742.1 164.5 742.3 167.3 741.3 168.3 743.9 172.7 746.6 171.4 748.8 172.1 750.9 171.9 751 169.6 751.7 170.7 753.7 171.4 755.2 170.8 757.1 173.8 755.7 177 757.7 179.3 757 180.6 758.2 182.4 761 183.9 762.4 187 765.4 189.7 766.7 193.8 770.3 197.1 769 198.6 767.8 197.6 765.5 198.6 765 200.2 767.6 202.3 765.4 206 765.9 207.4 769.5 211.2 769.6 213.1 771.7 215.4 772.8 215.4 775.6 218.9 769.6 224.6 765.8 226.7 765.5 228.8 763.9 230.3 758.3 229.5 752.9 229.2 751.7 227.9 749.5 229.1 746.3 228 745.5 228.7 746.8 231.6 746.2 233.8 748.3 238.1 747.6 238.9 742.3 238.9 741.1 239.6 744.1 240.3 744.9 243.7 744.8 248.2 741.9 248.8 740.1 250.6 738.9 256.9 739.7 257.1 739.5 259.6 737.9 260.9 736.9 262.9 735.9 261.8 733 261.3 729.9 261.5 728.3 260.4 724.2 260.9 722.6 260 721.2 261.4 719.2 260.4 717.9 260.7 717.7 263.2 718.4 265.1 717.8 267.5 715.3 269.3 711.9 269.6 708.5 271.4 706 271 704.3 271.7 704.1 274.4 705.1 277.7 706.4 278.4 711.8 278.8 715.1 278 715.5 278.5 713.7 280.2 715.1 283.8 718.4 283.3 719.5 284 720.9 283.4 721 285.2 718.8 286.5 715.9 291.8 717.1 293.6 719.2 294 722.9 292.3 724.6 292.9 723.2 295.2 725.8 295.8 724.8 298.7 723.2 299.9 719.4 300.7 716.5 303 717.3 308.5 718.2 309.4 719.9 308.8 719.4 311.3 722.2 311.1 721.1 313.3 715.4 316.6 713.7 317.8 711.2 317.4 709.3 315.3 708 315.5 703.1 318.9 699.2 321.2 695.2 321.6 692.5 320.8 689 322.3 687.5 324.8 689.1 327.8 687.6 328.7 686.7 330.7 683 331.6 681.4 333.4 680 336.5 678.5 337.2 675.5 337.4 670.8 336.5 669 334.6 669.3 331.4 670.4 329.8 670.1 327.7 671.7 326.2 671.9 322.5 673 321.3 679.8 317.3 681.4 315.8 684.2 316.4 687.8 316.1 688.9 318.1 689.3 315.8 691.3 313.4 690.8 311.3 692.9 310.5 693 307.7 694 305.9 692.9 303.3 696.1 299.8 696.9 297.8 701.2 296.4 701.3 294.4 703.3 292.8 704.8 292.6 707.9 289.3 708.5 287.8 707.4 285.6 702.8 286.3 697.1 286.5 694.4 287.7 692.4 287.1 692.7 285.6 691 286.2 688.3 285.8 686.5 286.7 685.2 288.5 687.5 292.5 687.5 293.8 686.1 296.9 683.3 299.2 681.9 302.1 680.9 303 681.8 306.1 681.2 307 682.4 308.9 676.7 312.4 674.6 311.9 674 309.2 674.7 306.6 673.1 305 669.4 303.4 666 304.6 662.1 303.4 654.4 304.6 649.3 304.2 646.6 302.3 641.5 296.8 640.2 293.4 639.6 293.3 640.1 296.4 641.4 297.6 640.3 301.6 636.9 301.1 636.2 301.9 637.5 304.5 636.4 306.2 635.3 306.1 633.8 311.2 629.2 314.3 627.9 314.1 626.8 316.2 631.9 321.5 634 321.9 636.7 320.1 640.8 318.5 642.4 317 643.9 317.1 645.6 318.3 647.3 318.5 652.1 317.8 654.1 318.4 656.2 321.1 659.1 321.9 662.3 323.5 663.1 325.3 662.5 326.6 664.1 328.6 664.2 330.3ZM500.2 351.7 500.6 352.9 497.7 351.8 498.8 351.1 500.2 351.7ZM817.9 247.7 820 247.3 819.2 250.3 817.8 250.3 817.9 247.7ZM814.8 245 815.1 243.9 817.1 244.2 816.8 245.9 814.9 246.8 814.8 245ZM739.9 257.9 741.3 258.6 743.3 257.6 741.4 259.7 743 259.5 742.5 261.1 739.6 261.6 739.9 257.9ZM751.4 258.5 750.8 260 747.3 259.8 745.7 258.6 749.9 256.9 752.4 257.8 751.4 258.5ZM665.5 306.6 663.8 304.7 665.8 305 668.8 306.5 666.5 308.2 665.5 306.6ZM756.9 312.8 757.7 311.5 760 313.9 756.9 312.8ZM682.2 303.6 684.4 303.1 689.6 303.1 688.4 304.7 687.6 307.2 688.9 309.2 686.8 307.9 685.6 308.3 685.4 306.4 683.9 306.4 681.8 305 682.2 303.6ZM664.4 326.5 667.1 325.5 666.6 327.8 664.4 326.5ZM756.6 301.4 758.3 300 760.5 301.8 756.8 303.5 755.9 302.4 756.6 301.4ZM703.7 341.2 702.3 339.6 703.4 338.9 704 336.1 706.2 335.3 707.6 336.1 708 334.9 709.9 335.1 709.9 337.4 708.3 340.1 706 340.1 703.7 341.2ZM723.1 328.7 724.3 327.4 725.6 328.9 722.9 329.5 723.1 328.7ZM720.2 333.4 721.5 332.4 721.1 331.3 722.6 330.8 723.7 332.9 722.6 333.9 720.2 333.4ZM721 304.6 718.9 303.8 718.9 302.3 721.5 303.2 721 304.6ZM760.8 253.1 763.9 253.2 761.4 254.4 760.8 253.1ZM721.7 283.2 724.8 282.2 724.2 284 721.9 284.1 721.7 283.2ZM657.6 317.9 657.5 316.5 664 314.6 667.4 316.5 666.2 318.8 663.9 318.3 662.9 319.4 660.3 320.4 658.7 319.6 657.6 317.9ZM698.4 330.8 698.2 329.4 699.8 331.1 698.4 332.9 697.5 332.8 698.4 330.8ZM663.7 320.4 664.4 319.2 665.6 320.3 663.7 320.4ZM765.9 227.6 767.4 226.2 769.4 226 768.8 227.3 765.9 227.6ZM734.8 269.4 734 268.3 735.7 266.7 736.4 268.7 734.8 269.4ZM720.8 329.6 719.2 328.9 717.7 326.2 720.5 323.9 720.9 322.6 723.3 319.9 725.3 319.4 726.7 320.6 726 325.7 723.3 326.2 723.2 327.8 720.8 329.6ZM720.4 341.1 722.1 339.5 722.5 341 720.6 342.2 720.4 341.1ZM758.6 261.1 755.6 260.1 752.1 256.7 751.9 253.7 754.9 251.1 757.5 251 760.2 252.7 761.9 256.7 764.3 257.9 764.5 259.3 761.9 259.1 758.6 261.1ZM642 315.1 640.4 314 639.3 311.2 640.1 307.3 641.7 305.5 643 305.3 646 307.1 649.6 307.6 655.6 305.2 658 306.4 657.3 309.3 650.9 313.6 646.5 314.8 642 315.1ZM660.5 306.2 660.5 304.5 662.8 303.8 662.3 305.4 660.5 306.2Z"/></svg>